M48
; DRILL file {KiCad (6.0.5)} date Thu Jul 21 22:42:17 2022
; FORMAT={-:-/ absolute / inch / decimal}
; #@! TF.CreationDate,2022-07-21T22:42:17-04:00
; #@! TF.GenerationSoftware,Kicad,Pcbnew,(6.0.5)
; #@! TF.FileFunction,MixedPlating,1,2
FMAT,2
INCH
; #@! TA.AperFunction,Plated,PTH,ViaDrill
T1C0.0160
; #@! TA.AperFunction,Plated,PTH,ComponentDrill
T2C0.0315
; #@! TA.AperFunction,Plated,PTH,ComponentDrill
T3C0.0354
; #@! TA.AperFunction,Plated,PTH,ComponentDrill
T4C0.0394
; #@! TA.AperFunction,Plated,PTH,ComponentDrill
T5C0.0591
; #@! TA.AperFunction,NonPlated,NPTH,ComponentDrill
T6C0.1260
%
G90
G05
T1
X0.1772Y0.8372
X0.18Y2.94
X0.18Y2.64
X0.18Y2.34
X0.18Y2.04
X0.18Y1.74
X0.18Y1.44
X0.18Y1.14
X0.18Y0.54
X0.28Y2.94
X0.28Y2.64
X0.28Y2.34
X0.28Y2.05
X0.28Y1.74
X0.28Y1.44
X0.28Y1.14
X0.28Y0.84
X0.43Y0.29
X0.63Y3.34
X1.03Y3.19
X1.03Y0.29
X1.03Y0.19
X1.04Y3.32
X1.18Y0.39
X1.3239Y3.2961
X1.33Y3.19
X1.33Y0.29
X1.33Y0.19
X1.48Y1.87
X1.62Y2.75
X1.6272Y3.2928
X1.63Y3.19
X1.63Y2.44
X1.63Y0.29
X1.63Y0.19
X1.64Y2.58
X1.83Y0.84
X1.84Y1.24
X1.93Y3.29
X1.93Y3.19
X1.93Y0.86
X1.93Y0.29
X1.93Y0.19
X2.0Y0.59
X2.02Y0.69
X2.1Y1.66
X2.1Y1.03
X2.11Y0.59
X2.2291Y0.2909
X2.23Y3.29
X2.23Y0.19
X2.29Y1.51
X2.33Y1.71
X2.38Y1.33
X2.45Y0.58
X2.53Y3.29
X2.53Y3.19
X2.53Y0.29
X2.53Y0.19
X2.54Y1.76
X2.56Y0.58
X2.58Y1.39
X2.6311Y1.268
X2.65Y1.61
X2.68Y1.84
X2.68Y1.04
X2.6888Y1.9792
X2.73Y1.52
X2.828Y0.292
X2.83Y3.29
X2.83Y3.19
X2.83Y0.19
X2.85Y1.81
X2.89Y0.7
X2.902Y1.27
X2.91Y0.58
X2.98Y1.76
X2.99Y0.58
X3.03Y1.3
X3.03Y1.07
X3.07Y0.82
X3.08Y1.76
X3.12Y1.4
X3.13Y3.29
X3.13Y3.19
X3.13Y0.29
X3.13Y0.19
X3.21Y1.66
X3.23Y1.92
X3.36Y0.59
X3.37Y0.95
X3.42Y0.82
X3.43Y3.29
X3.43Y3.19
X3.43Y0.29
X3.43Y0.19
X3.46Y0.59
X3.73Y3.29
X3.73Y0.19
X3.74Y3.19
X3.83Y1.83
X3.83Y1.2184
X3.97Y2.75
X4.0Y2.97
X4.03Y3.29
X4.03Y3.19
X4.03Y0.29
X4.03Y0.19
X4.06Y2.72
X4.08Y2.86
X4.1Y0.86
X4.13Y1.38
X4.13Y0.82
X4.16Y1.83
X4.27Y1.87
X4.3Y2.55
X4.33Y3.29
X4.33Y3.19
X4.33Y0.52
X4.33Y0.31
X4.33Y0.19
X4.4Y0.74
X4.4006Y2.7706
X4.43Y1.29
X4.43Y1.22
X4.5Y1.69
X4.5Y1.43
X4.52Y1.95
X4.55Y2.07
X4.56Y2.52
X4.59Y2.66
X4.73Y0.29
X4.752Y2.63
X4.77Y3.06
X4.8496Y1.1096
X4.86Y0.95
X4.9Y0.76
X4.92Y0.4046
X4.93Y3.29
X4.93Y0.29
X4.996Y1.516
X5.09Y1.92
X5.18Y2.832
X5.18Y2.54
X5.18Y2.24
X5.18Y1.94
X5.18Y1.64
X5.18Y1.34
X5.18Y1.04
X5.2Y1.79
X5.27Y2.86
X5.27Y1.79
X5.28Y2.54
X5.28Y2.24
X5.28Y1.64
X5.28Y1.04
X5.2828Y1.9428
X5.2828Y1.3428
X5.38Y2.89
T2
X0.5804Y2.8904
X0.5804Y2.5904
X0.6804Y2.8904
X0.6804Y2.5904
X0.7804Y2.8904
X0.7804Y2.5904
X0.8804Y2.8904
X0.8804Y2.5904
X2.1798Y1.1904
X2.1798Y0.8904
X2.2798Y1.1904
X2.2798Y0.8904
X2.3798Y1.1904
X2.3798Y0.8904
X2.4798Y1.1904
X2.4798Y0.8904
X2.5798Y1.1904
X2.5798Y0.8904
X2.6798Y1.1904
X2.6798Y0.8904
X2.7798Y1.1904
X2.7798Y0.8904
X2.8798Y1.1904
X2.8798Y0.8904
X2.9798Y1.1904
X2.9798Y0.8904
X3.0798Y1.1904
X3.0798Y0.8904
X3.1798Y1.1904
X3.1798Y0.8904
X3.2798Y1.1904
X3.2798Y0.8904
X4.63Y2.3896
X4.63Y2.2896
X4.63Y2.1896
X4.63Y2.0896
X4.63Y1.9896
X4.63Y1.8896
X4.63Y1.7896
X4.63Y1.6896
X4.63Y1.5896
X4.63Y1.4896
X4.63Y1.3896
X4.63Y1.2896
X4.63Y1.1896
X4.63Y1.0896
X4.93Y2.3896
X4.93Y2.2896
X4.93Y2.1896
X4.93Y2.0896
X4.93Y1.9896
X4.93Y1.8896
X4.93Y1.7896
X4.93Y1.6896
X4.93Y1.5896
X4.93Y1.4896
X4.93Y1.3896
X4.93Y1.2896
X4.93Y1.1896
X4.93Y1.0896
T3
X2.43Y2.04
X2.43Y1.44
X2.53Y2.04
X2.53Y1.44
X2.63Y2.04
X2.63Y1.44
X2.73Y2.04
X2.73Y1.44
X2.83Y2.04
X2.83Y1.44
X2.93Y2.04
X2.93Y1.44
X3.03Y2.04
X3.03Y1.44
T4
X0.9631Y1.84
X1.16Y1.84
X1.23Y2.68
X1.23Y2.58
X1.23Y2.48
X1.23Y2.38
X1.23Y2.28
X1.23Y2.18
X2.48Y2.3113
X2.58Y2.3113
X2.68Y2.3113
X2.78Y2.3113
X4.73Y2.94
X4.73Y2.84
X4.73Y2.74
X4.83Y2.94
X4.83Y2.84
X4.83Y2.74
T5
X0.5728Y0.94
X1.3795Y0.94
T6
X0.1727Y3.3288
X0.1727Y0.1792
X5.29Y0.18
X5.2908Y3.3288
T4
G00X3.4127Y1.0306
M15
G01X3.4127Y1.1094
M16
G05
G00X3.5111Y1.1763
M15
G01X3.5111Y1.255
M16
G05
G00X3.5721Y0.9794
M15
G01X3.6706Y0.9794
M16
G05
T0
M30
