%TF.GenerationSoftware,KiCad,Pcbnew,(6.0.5)*%
%TF.CreationDate,2022-07-21T22:29:02-04:00*%
%TF.ProjectId,clock,636c6f63-6b2e-46b6-9963-61645f706362,rev?*%
%TF.SameCoordinates,PX4cc9b70PY86327e0*%
%TF.FileFunction,Soldermask,Top*%
%TF.FilePolarity,Negative*%
%FSLAX46Y46*%
G04 Gerber Fmt 4.6, Leading zero omitted, Abs format (unit mm)*
G04 Created by KiCad (PCBNEW (6.0.5)) date 2022-07-21 22:29:02*
%MOMM*%
%LPD*%
G01*
G04 APERTURE LIST*
G04 Aperture macros list*
%AMRoundRect*
0 Rectangle with rounded corners*
0 $1 Rounding radius*
0 $2 $3 $4 $5 $6 $7 $8 $9 X,Y pos of 4 corners*
0 Add a 4 corners polygon primitive as box body*
4,1,4,$2,$3,$4,$5,$6,$7,$8,$9,$2,$3,0*
0 Add four circle primitives for the rounded corners*
1,1,$1+$1,$2,$3*
1,1,$1+$1,$4,$5*
1,1,$1+$1,$6,$7*
1,1,$1+$1,$8,$9*
0 Add four rect primitives between the rounded corners*
20,1,$1+$1,$2,$3,$4,$5,0*
20,1,$1+$1,$4,$5,$6,$7,0*
20,1,$1+$1,$6,$7,$8,$9,0*
20,1,$1+$1,$8,$9,$2,$3,0*%
G04 Aperture macros list end*
%ADD10R,1.150000X1.400000*%
%ADD11R,1.000000X1.500000*%
%ADD12R,1.500000X1.000000*%
%ADD13C,3.200000*%
%ADD14R,1.600000X1.400000*%
%ADD15R,1.400000X1.150000*%
%ADD16R,1.700000X1.700000*%
%ADD17O,1.700000X1.700000*%
%ADD18R,1.400000X1.400000*%
%ADD19C,1.400000*%
%ADD20R,1.200000X2.200000*%
%ADD21R,5.800000X6.400000*%
%ADD22R,2.000000X2.000000*%
%ADD23C,2.000000*%
%ADD24RoundRect,0.243750X0.456250X-0.243750X0.456250X0.243750X-0.456250X0.243750X-0.456250X-0.243750X0*%
%ADD25R,1.600000X1.600000*%
%ADD26O,1.600000X1.600000*%
%ADD27R,4.500000X2.000000*%
%ADD28R,3.000000X3.000000*%
%ADD29C,3.000000*%
%ADD30R,1.000000X1.800000*%
%ADD31RoundRect,0.500000X-1.750000X-0.500000X1.750000X-0.500000X1.750000X0.500000X-1.750000X0.500000X0*%
%ADD32RoundRect,0.500000X0.500000X-1.500000X0.500000X1.500000X-0.500000X1.500000X-0.500000X-1.500000X0*%
G04 APERTURE END LIST*
D10*
%TO.C,C4*%
X107608000Y44958000D03*
X109308000Y44958000D03*
%TD*%
D11*
%TO.C,D18*%
X134442000Y66966000D03*
X131242000Y66966000D03*
X131242000Y62066000D03*
X134442000Y62066000D03*
%TD*%
D12*
%TO.C,D28*%
X46572000Y83896000D03*
X46572000Y80696000D03*
X51472000Y80696000D03*
X51472000Y83896000D03*
%TD*%
D13*
%TO.C,H2*%
X134386466Y84551534D03*
%TD*%
D14*
%TO.C,SW1*%
X56578000Y14096000D03*
X48578000Y14096000D03*
X56578000Y18596000D03*
X48578000Y18596000D03*
%TD*%
D12*
%TO.C,D7*%
X74332000Y4496000D03*
X74332000Y7696000D03*
X69432000Y7696000D03*
X69432000Y4496000D03*
%TD*%
D15*
%TO.C,C2*%
X115062000Y44616000D03*
X115062000Y46316000D03*
%TD*%
D10*
%TO.C,C5*%
X99226000Y44958000D03*
X100926000Y44958000D03*
%TD*%
D13*
%TO.C,H1*%
X4386466Y84551534D03*
%TD*%
D16*
%TO.C,U5*%
X62992000Y58706000D03*
D17*
X65532000Y58706000D03*
X68072000Y58706000D03*
X70612000Y58706000D03*
%TD*%
D11*
%TO.C,D16*%
X134442000Y51726000D03*
X131242000Y51726000D03*
X131242000Y46826000D03*
X134442000Y46826000D03*
%TD*%
D10*
%TO.C,R11*%
X76796000Y11684000D03*
X75096000Y11684000D03*
%TD*%
D11*
%TO.C,D38*%
X4242000Y26506000D03*
X7442000Y26506000D03*
X7442000Y31406000D03*
X4242000Y31406000D03*
%TD*%
D12*
%TO.C,D9*%
X89572000Y4496000D03*
X89572000Y7696000D03*
X84672000Y7696000D03*
X84672000Y4496000D03*
%TD*%
D18*
%TO.C,DS1*%
X61722000Y36576000D03*
D19*
X64262000Y36576000D03*
X66802000Y36576000D03*
X69342000Y36576000D03*
X71882000Y36576000D03*
X74422000Y36576000D03*
X76962000Y36576000D03*
X76962000Y51816000D03*
X74422000Y51816000D03*
X71882000Y51816000D03*
X69342000Y51816000D03*
X66802000Y51816000D03*
X64262000Y51816000D03*
X61722000Y51816000D03*
%TD*%
D12*
%TO.C,D27*%
X54192000Y83896000D03*
X54192000Y80696000D03*
X59092000Y80696000D03*
X59092000Y83896000D03*
%TD*%
D10*
%TO.C,R15*%
X109132000Y72136000D03*
X110832000Y72136000D03*
%TD*%
D11*
%TO.C,D13*%
X134442000Y28866000D03*
X131242000Y28866000D03*
X131242000Y23966000D03*
X134442000Y23966000D03*
%TD*%
D15*
%TO.C,C6*%
X97282000Y26006000D03*
X97282000Y27706000D03*
%TD*%
D10*
%TO.C,C10*%
X14312000Y6096000D03*
X12612000Y6096000D03*
%TD*%
%TO.C,R2*%
X110832000Y67056000D03*
X109132000Y67056000D03*
%TD*%
D15*
%TO.C,C1*%
X128524000Y43258000D03*
X128524000Y44958000D03*
%TD*%
D12*
%TO.C,D11*%
X104812000Y4496000D03*
X104812000Y7696000D03*
X99912000Y7696000D03*
X99912000Y4496000D03*
%TD*%
D10*
%TO.C,C3*%
X37504000Y69088000D03*
X39204000Y69088000D03*
%TD*%
D12*
%TO.C,D6*%
X66697920Y4496000D03*
X66697920Y7696000D03*
X61797920Y7696000D03*
X61797920Y4496000D03*
%TD*%
D11*
%TO.C,D35*%
X4242000Y49366000D03*
X7442000Y49366000D03*
X7442000Y54266000D03*
X4242000Y54266000D03*
%TD*%
D13*
%TO.C,H3*%
X4386466Y4551534D03*
%TD*%
D11*
%TO.C,D14*%
X134442000Y36486000D03*
X131242000Y36486000D03*
X131242000Y31586000D03*
X134442000Y31586000D03*
%TD*%
D10*
%TO.C,R4*%
X37562000Y61976000D03*
X39262000Y61976000D03*
%TD*%
%TO.C,C11*%
X121832000Y6096000D03*
X123532000Y6096000D03*
%TD*%
D11*
%TO.C,D33*%
X4242000Y64606000D03*
X7442000Y64606000D03*
X7442000Y69506000D03*
X4242000Y69506000D03*
%TD*%
D10*
%TO.C,R9*%
X53262000Y11176000D03*
X51562000Y11176000D03*
%TD*%
%TO.C,C12*%
X121832000Y82296000D03*
X123532000Y82296000D03*
%TD*%
D12*
%TO.C,D31*%
X23712000Y83896000D03*
X23712000Y80696000D03*
X28612000Y80696000D03*
X28612000Y83896000D03*
%TD*%
D11*
%TO.C,D34*%
X4242000Y56986000D03*
X7442000Y56986000D03*
X7442000Y61886000D03*
X4242000Y61886000D03*
%TD*%
D10*
%TO.C,C13*%
X12612000Y82296000D03*
X14312000Y82296000D03*
%TD*%
D20*
%TO.C,U2*%
X102622000Y22656000D03*
D21*
X104902000Y28956000D03*
D20*
X107182000Y22656000D03*
%TD*%
D11*
%TO.C,D32*%
X4242000Y72226000D03*
X7442000Y72226000D03*
X7442000Y77126000D03*
X4242000Y77126000D03*
%TD*%
D15*
%TO.C,C7*%
X112522000Y26006000D03*
X112522000Y27706000D03*
%TD*%
D22*
%TO.C,BZ1*%
X29464000Y46736000D03*
D23*
X24464000Y46736000D03*
%TD*%
D24*
%TO.C,D50*%
X126238000Y11938500D03*
X126238000Y13813500D03*
%TD*%
D12*
%TO.C,D30*%
X31332000Y83896000D03*
X31332000Y80696000D03*
X36232000Y80696000D03*
X36232000Y83896000D03*
%TD*%
D10*
%TO.C,C9*%
X49022000Y28956000D03*
X47322000Y28956000D03*
%TD*%
D14*
%TO.C,SW3*%
X79374000Y14096000D03*
X71374000Y14096000D03*
X79374000Y18596000D03*
X71374000Y18596000D03*
%TD*%
D12*
%TO.C,D20*%
X107532000Y83896000D03*
X107532000Y80696000D03*
X112432000Y80696000D03*
X112432000Y83896000D03*
%TD*%
D13*
%TO.C,H4*%
X134366000Y4572000D03*
%TD*%
D10*
%TO.C,R3*%
X37562000Y65532000D03*
X39262000Y65532000D03*
%TD*%
D25*
%TO.C,U3*%
X55367000Y22616000D03*
D26*
X57907000Y22616000D03*
X60447000Y22616000D03*
X62987000Y22616000D03*
X65527000Y22616000D03*
X68067000Y22616000D03*
X70607000Y22616000D03*
X73147000Y22616000D03*
X75687000Y22616000D03*
X78227000Y22616000D03*
X80767000Y22616000D03*
X83307000Y22616000D03*
X83307000Y30236000D03*
X80767000Y30236000D03*
X78227000Y30236000D03*
X75687000Y30236000D03*
X73147000Y30236000D03*
X70607000Y30236000D03*
X68067000Y30236000D03*
X65527000Y30236000D03*
X62987000Y30236000D03*
X60447000Y30236000D03*
X57907000Y30236000D03*
X55367000Y30236000D03*
%TD*%
D15*
%TO.C,R1*%
X126238000Y16256000D03*
X126238000Y17956000D03*
%TD*%
%TO.C,R13*%
X35472000Y47078000D03*
X35472000Y45378000D03*
%TD*%
D10*
%TO.C,R14*%
X109132000Y61976000D03*
X110832000Y61976000D03*
%TD*%
D25*
%TO.C,U4*%
X14742000Y65796000D03*
D26*
X17282000Y65796000D03*
X19822000Y65796000D03*
X22362000Y65796000D03*
X22362000Y73416000D03*
X19822000Y73416000D03*
X17282000Y73416000D03*
X14742000Y73416000D03*
%TD*%
D12*
%TO.C,D24*%
X77052000Y83896000D03*
X77052000Y80696000D03*
X81952000Y80696000D03*
X81952000Y83896000D03*
%TD*%
D27*
%TO.C,Y1*%
X100144000Y41148000D03*
X108644000Y41148000D03*
%TD*%
D12*
%TO.C,D25*%
X69432000Y83896000D03*
X69432000Y80696000D03*
X74332000Y80696000D03*
X74332000Y83896000D03*
%TD*%
%TO.C,D22*%
X92292000Y83896000D03*
X92292000Y80696000D03*
X97192000Y80696000D03*
X97192000Y83896000D03*
%TD*%
%TO.C,D10*%
X97192000Y4496000D03*
X97192000Y7696000D03*
X92292000Y7696000D03*
X92292000Y4496000D03*
%TD*%
D10*
%TO.C,C8*%
X49022000Y23876000D03*
X47322000Y23876000D03*
%TD*%
%TO.C,R12*%
X87630000Y11684000D03*
X85930000Y11684000D03*
%TD*%
D11*
%TO.C,D17*%
X134442000Y59346000D03*
X131242000Y59346000D03*
X131242000Y54446000D03*
X134442000Y54446000D03*
%TD*%
%TO.C,D19*%
X134442000Y74586000D03*
X131242000Y74586000D03*
X131242000Y69686000D03*
X134442000Y69686000D03*
%TD*%
D12*
%TO.C,D8*%
X81952000Y4496000D03*
X81952000Y7696000D03*
X77052000Y7696000D03*
X77052000Y4496000D03*
%TD*%
%TO.C,D26*%
X61812000Y83896000D03*
X61812000Y80696000D03*
X66712000Y80696000D03*
X66712000Y83896000D03*
%TD*%
%TO.C,D23*%
X84672000Y83896000D03*
X84672000Y80696000D03*
X89572000Y80696000D03*
X89572000Y83896000D03*
%TD*%
D25*
%TO.C,U1*%
X117602000Y60696000D03*
D26*
X117602000Y58156000D03*
X117602000Y55616000D03*
X117602000Y53076000D03*
X117602000Y50536000D03*
X117602000Y47996000D03*
X117602000Y45456000D03*
X117602000Y42916000D03*
X117602000Y40376000D03*
X117602000Y37836000D03*
X117602000Y35296000D03*
X117602000Y32756000D03*
X117602000Y30216000D03*
X117602000Y27676000D03*
X125222000Y27676000D03*
X125222000Y30216000D03*
X125222000Y32756000D03*
X125222000Y35296000D03*
X125222000Y37836000D03*
X125222000Y40376000D03*
X125222000Y42916000D03*
X125222000Y45456000D03*
X125222000Y47996000D03*
X125222000Y50536000D03*
X125222000Y53076000D03*
X125222000Y55616000D03*
X125222000Y58156000D03*
X125222000Y60696000D03*
%TD*%
D12*
%TO.C,D21*%
X99912000Y83896000D03*
X99912000Y80696000D03*
X104812000Y80696000D03*
X104812000Y83896000D03*
%TD*%
D28*
%TO.C,BT1*%
X14548314Y23875983D03*
D29*
X35038314Y23875983D03*
%TD*%
D12*
%TO.C,D2*%
X36232000Y4496000D03*
X36232000Y7696000D03*
X31332000Y7696000D03*
X31332000Y4496000D03*
%TD*%
D14*
%TO.C,SW5*%
X101282000Y67346000D03*
X93282000Y67346000D03*
X101282000Y71846000D03*
X93282000Y71846000D03*
%TD*%
D11*
%TO.C,D15*%
X134442000Y44106000D03*
X131242000Y44106000D03*
X131242000Y39206000D03*
X134442000Y39206000D03*
%TD*%
%TO.C,D36*%
X4242000Y41746000D03*
X7442000Y41746000D03*
X7442000Y46646000D03*
X4242000Y46646000D03*
%TD*%
D12*
%TO.C,D5*%
X59092000Y4496000D03*
X59092000Y7696000D03*
X54192000Y7696000D03*
X54192000Y4496000D03*
%TD*%
%TO.C,D3*%
X43852000Y4496000D03*
X43852000Y7696000D03*
X38952000Y7696000D03*
X38952000Y4496000D03*
%TD*%
D11*
%TO.C,D37*%
X4242000Y34126000D03*
X7442000Y34126000D03*
X7442000Y39026000D03*
X4242000Y39026000D03*
%TD*%
D16*
%TO.C,J2*%
X31242000Y55372000D03*
D17*
X31242000Y57912000D03*
X31242000Y60452000D03*
X31242000Y62992000D03*
X31242000Y65532000D03*
X31242000Y68072000D03*
%TD*%
D12*
%TO.C,D1*%
X28612000Y4496000D03*
X28612000Y7696000D03*
X23712000Y7696000D03*
X23712000Y4496000D03*
%TD*%
D30*
%TO.C,Y2*%
X14752000Y61976000D03*
X17252000Y61976000D03*
%TD*%
D10*
%TO.C,R5*%
X68658000Y33020000D03*
X70358000Y33020000D03*
%TD*%
D14*
%TO.C,SW2*%
X67818000Y14096000D03*
X59818000Y14096000D03*
X67818000Y18596000D03*
X59818000Y18596000D03*
%TD*%
D16*
%TO.C,J3*%
X122682000Y69596000D03*
D17*
X120142000Y69596000D03*
X122682000Y72136000D03*
X120142000Y72136000D03*
X122682000Y74676000D03*
X120142000Y74676000D03*
%TD*%
D12*
%TO.C,D12*%
X112432000Y4496000D03*
X112432000Y7696000D03*
X107532000Y7696000D03*
X107532000Y4496000D03*
%TD*%
%TO.C,D29*%
X38952000Y83896000D03*
X38952000Y80696000D03*
X43852000Y80696000D03*
X43852000Y83896000D03*
%TD*%
%TO.C,D4*%
X51472000Y4496000D03*
X51472000Y7696000D03*
X46572000Y7696000D03*
X46572000Y4496000D03*
%TD*%
D11*
%TO.C,D39*%
X4242000Y18886000D03*
X7442000Y18886000D03*
X7442000Y23786000D03*
X4242000Y23786000D03*
%TD*%
%TO.C,D40*%
X4242000Y11266000D03*
X7442000Y11266000D03*
X7442000Y16166000D03*
X4242000Y16166000D03*
%TD*%
D14*
%TO.C,SW4*%
X90550000Y14096000D03*
X82550000Y14096000D03*
X90550000Y18596000D03*
X82550000Y18596000D03*
%TD*%
D10*
%TO.C,R10*%
X65112000Y11684000D03*
X63412000Y11684000D03*
%TD*%
D31*
%TO.C,J1*%
X91982011Y24877998D03*
D32*
X86682011Y27177998D03*
X89182011Y30877998D03*
%TD*%
M02*
