%TF.GenerationSoftware,KiCad,Pcbnew,(6.0.5)*%
%TF.CreationDate,2022-07-21T22:29:02-04:00*%
%TF.ProjectId,clock,636c6f63-6b2e-46b6-9963-61645f706362,rev?*%
%TF.SameCoordinates,PX4cc9b70PY86327e0*%
%TF.FileFunction,Legend,Top*%
%TF.FilePolarity,Positive*%
%FSLAX46Y46*%
G04 Gerber Fmt 4.6, Leading zero omitted, Abs format (unit mm)*
G04 Created by KiCad (PCBNEW (6.0.5)) date 2022-07-21 22:29:02*
%MOMM*%
%LPD*%
G01*
G04 APERTURE LIST*
G04 Aperture macros list*
%AMRoundRect*
0 Rectangle with rounded corners*
0 $1 Rounding radius*
0 $2 $3 $4 $5 $6 $7 $8 $9 X,Y pos of 4 corners*
0 Add a 4 corners polygon primitive as box body*
4,1,4,$2,$3,$4,$5,$6,$7,$8,$9,$2,$3,0*
0 Add four circle primitives for the rounded corners*
1,1,$1+$1,$2,$3*
1,1,$1+$1,$4,$5*
1,1,$1+$1,$6,$7*
1,1,$1+$1,$8,$9*
0 Add four rect primitives between the rounded corners*
20,1,$1+$1,$2,$3,$4,$5,0*
20,1,$1+$1,$4,$5,$6,$7,0*
20,1,$1+$1,$6,$7,$8,$9,0*
20,1,$1+$1,$8,$9,$2,$3,0*%
G04 Aperture macros list end*
%ADD10C,0.150000*%
%ADD11C,0.120000*%
%ADD12C,0.250000*%
%ADD13R,1.150000X1.400000*%
%ADD14R,1.000000X1.500000*%
%ADD15R,1.500000X1.000000*%
%ADD16C,3.200000*%
%ADD17R,1.600000X1.400000*%
%ADD18R,1.400000X1.150000*%
%ADD19R,1.700000X1.700000*%
%ADD20O,1.700000X1.700000*%
%ADD21R,1.400000X1.400000*%
%ADD22C,1.400000*%
%ADD23R,1.200000X2.200000*%
%ADD24R,5.800000X6.400000*%
%ADD25R,2.000000X2.000000*%
%ADD26C,2.000000*%
%ADD27RoundRect,0.243750X0.456250X-0.243750X0.456250X0.243750X-0.456250X0.243750X-0.456250X-0.243750X0*%
%ADD28R,1.600000X1.600000*%
%ADD29O,1.600000X1.600000*%
%ADD30R,4.500000X2.000000*%
%ADD31R,3.000000X3.000000*%
%ADD32C,3.000000*%
%ADD33R,1.000000X1.800000*%
%ADD34RoundRect,0.500000X-1.750000X-0.500000X1.750000X-0.500000X1.750000X0.500000X-1.750000X0.500000X0*%
%ADD35RoundRect,0.500000X0.500000X-1.500000X0.500000X1.500000X-0.500000X1.500000X-0.500000X-1.500000X0*%
G04 APERTURE END LIST*
D10*
%TO.C,C4*%
X108291333Y46250858D02*
X108243714Y46203239D01*
X108100857Y46155620D01*
X108005619Y46155620D01*
X107862761Y46203239D01*
X107767523Y46298477D01*
X107719904Y46393715D01*
X107672285Y46584191D01*
X107672285Y46727048D01*
X107719904Y46917524D01*
X107767523Y47012762D01*
X107862761Y47108000D01*
X108005619Y47155620D01*
X108100857Y47155620D01*
X108243714Y47108000D01*
X108291333Y47060381D01*
X109148476Y46822286D02*
X109148476Y46155620D01*
X108910380Y47203239D02*
X108672285Y46488953D01*
X109291333Y46488953D01*
%TO.C,D18*%
X129794380Y63301715D02*
X128794380Y63301715D01*
X128794380Y63539810D01*
X128842000Y63682667D01*
X128937238Y63777905D01*
X129032476Y63825524D01*
X129222952Y63873143D01*
X129365809Y63873143D01*
X129556285Y63825524D01*
X129651523Y63777905D01*
X129746761Y63682667D01*
X129794380Y63539810D01*
X129794380Y63301715D01*
X129794380Y64825524D02*
X129794380Y64254096D01*
X129794380Y64539810D02*
X128794380Y64539810D01*
X128937238Y64444572D01*
X129032476Y64349334D01*
X129080095Y64254096D01*
X129222952Y65396953D02*
X129175333Y65301715D01*
X129127714Y65254096D01*
X129032476Y65206477D01*
X128984857Y65206477D01*
X128889619Y65254096D01*
X128842000Y65301715D01*
X128794380Y65396953D01*
X128794380Y65587429D01*
X128842000Y65682667D01*
X128889619Y65730286D01*
X128984857Y65777905D01*
X129032476Y65777905D01*
X129127714Y65730286D01*
X129175333Y65682667D01*
X129222952Y65587429D01*
X129222952Y65396953D01*
X129270571Y65301715D01*
X129318190Y65254096D01*
X129413428Y65206477D01*
X129603904Y65206477D01*
X129699142Y65254096D01*
X129746761Y65301715D01*
X129794380Y65396953D01*
X129794380Y65587429D01*
X129746761Y65682667D01*
X129699142Y65730286D01*
X129603904Y65777905D01*
X129413428Y65777905D01*
X129318190Y65730286D01*
X129270571Y65682667D01*
X129222952Y65587429D01*
%TO.C,D28*%
X47807714Y78343620D02*
X47807714Y79343620D01*
X48045809Y79343620D01*
X48188666Y79296000D01*
X48283904Y79200762D01*
X48331523Y79105524D01*
X48379142Y78915048D01*
X48379142Y78772191D01*
X48331523Y78581715D01*
X48283904Y78486477D01*
X48188666Y78391239D01*
X48045809Y78343620D01*
X47807714Y78343620D01*
X48760095Y79248381D02*
X48807714Y79296000D01*
X48902952Y79343620D01*
X49141047Y79343620D01*
X49236285Y79296000D01*
X49283904Y79248381D01*
X49331523Y79153143D01*
X49331523Y79057905D01*
X49283904Y78915048D01*
X48712476Y78343620D01*
X49331523Y78343620D01*
X49902952Y78915048D02*
X49807714Y78962667D01*
X49760095Y79010286D01*
X49712476Y79105524D01*
X49712476Y79153143D01*
X49760095Y79248381D01*
X49807714Y79296000D01*
X49902952Y79343620D01*
X50093428Y79343620D01*
X50188666Y79296000D01*
X50236285Y79248381D01*
X50283904Y79153143D01*
X50283904Y79105524D01*
X50236285Y79010286D01*
X50188666Y78962667D01*
X50093428Y78915048D01*
X49902952Y78915048D01*
X49807714Y78867429D01*
X49760095Y78819810D01*
X49712476Y78724572D01*
X49712476Y78534096D01*
X49760095Y78438858D01*
X49807714Y78391239D01*
X49902952Y78343620D01*
X50093428Y78343620D01*
X50188666Y78391239D01*
X50236285Y78438858D01*
X50283904Y78534096D01*
X50283904Y78724572D01*
X50236285Y78819810D01*
X50188666Y78867429D01*
X50093428Y78915048D01*
%TO.C,H2*%
X133624561Y88299154D02*
X133624561Y89299154D01*
X133624561Y88822963D02*
X134195989Y88822963D01*
X134195989Y88299154D02*
X134195989Y89299154D01*
X134624561Y89203915D02*
X134672180Y89251534D01*
X134767418Y89299154D01*
X135005513Y89299154D01*
X135100751Y89251534D01*
X135148370Y89203915D01*
X135195989Y89108677D01*
X135195989Y89013439D01*
X135148370Y88870582D01*
X134576942Y88299154D01*
X135195989Y88299154D01*
%TO.C,SW1*%
X51244666Y13819239D02*
X51387523Y13771620D01*
X51625619Y13771620D01*
X51720857Y13819239D01*
X51768476Y13866858D01*
X51816095Y13962096D01*
X51816095Y14057334D01*
X51768476Y14152572D01*
X51720857Y14200191D01*
X51625619Y14247810D01*
X51435142Y14295429D01*
X51339904Y14343048D01*
X51292285Y14390667D01*
X51244666Y14485905D01*
X51244666Y14581143D01*
X51292285Y14676381D01*
X51339904Y14724000D01*
X51435142Y14771620D01*
X51673238Y14771620D01*
X51816095Y14724000D01*
X52149428Y14771620D02*
X52387523Y13771620D01*
X52578000Y14485905D01*
X52768476Y13771620D01*
X53006571Y14771620D01*
X53911333Y13771620D02*
X53339904Y13771620D01*
X53625619Y13771620D02*
X53625619Y14771620D01*
X53530380Y14628762D01*
X53435142Y14533524D01*
X53339904Y14485905D01*
%TO.C,D7*%
X71143904Y9143620D02*
X71143904Y10143620D01*
X71382000Y10143620D01*
X71524857Y10096000D01*
X71620095Y10000762D01*
X71667714Y9905524D01*
X71715333Y9715048D01*
X71715333Y9572191D01*
X71667714Y9381715D01*
X71620095Y9286477D01*
X71524857Y9191239D01*
X71382000Y9143620D01*
X71143904Y9143620D01*
X72048666Y10143620D02*
X72715333Y10143620D01*
X72286761Y9143620D01*
%TO.C,C2*%
X115419142Y48181334D02*
X115466761Y48133715D01*
X115514380Y47990858D01*
X115514380Y47895620D01*
X115466761Y47752762D01*
X115371523Y47657524D01*
X115276285Y47609905D01*
X115085809Y47562286D01*
X114942952Y47562286D01*
X114752476Y47609905D01*
X114657238Y47657524D01*
X114562000Y47752762D01*
X114514380Y47895620D01*
X114514380Y47990858D01*
X114562000Y48133715D01*
X114609619Y48181334D01*
X114609619Y48562286D02*
X114562000Y48609905D01*
X114514380Y48705143D01*
X114514380Y48943239D01*
X114562000Y49038477D01*
X114609619Y49086096D01*
X114704857Y49133715D01*
X114800095Y49133715D01*
X114942952Y49086096D01*
X115514380Y48514667D01*
X115514380Y49133715D01*
%TO.C,C5*%
X99909333Y46632858D02*
X99861714Y46585239D01*
X99718857Y46537620D01*
X99623619Y46537620D01*
X99480761Y46585239D01*
X99385523Y46680477D01*
X99337904Y46775715D01*
X99290285Y46966191D01*
X99290285Y47109048D01*
X99337904Y47299524D01*
X99385523Y47394762D01*
X99480761Y47490000D01*
X99623619Y47537620D01*
X99718857Y47537620D01*
X99861714Y47490000D01*
X99909333Y47442381D01*
X100814095Y47537620D02*
X100337904Y47537620D01*
X100290285Y47061429D01*
X100337904Y47109048D01*
X100433142Y47156667D01*
X100671238Y47156667D01*
X100766476Y47109048D01*
X100814095Y47061429D01*
X100861714Y46966191D01*
X100861714Y46728096D01*
X100814095Y46632858D01*
X100766476Y46585239D01*
X100671238Y46537620D01*
X100433142Y46537620D01*
X100337904Y46585239D01*
X100290285Y46632858D01*
%TO.C,H1*%
X3624561Y88299154D02*
X3624561Y89299154D01*
X3624561Y88822963D02*
X4195989Y88822963D01*
X4195989Y88299154D02*
X4195989Y89299154D01*
X5195989Y88299154D02*
X4624561Y88299154D01*
X4910275Y88299154D02*
X4910275Y89299154D01*
X4815037Y89156296D01*
X4719799Y89061058D01*
X4624561Y89013439D01*
%TO.C,U5*%
X46040095Y78603620D02*
X46040095Y77794096D01*
X46087714Y77698858D01*
X46135333Y77651239D01*
X46230571Y77603620D01*
X46421047Y77603620D01*
X46516285Y77651239D01*
X46563904Y77698858D01*
X46611523Y77794096D01*
X46611523Y78603620D01*
X47563904Y78603620D02*
X47087714Y78603620D01*
X47040095Y78127429D01*
X47087714Y78175048D01*
X47182952Y78222667D01*
X47421047Y78222667D01*
X47516285Y78175048D01*
X47563904Y78127429D01*
X47611523Y78032191D01*
X47611523Y77794096D01*
X47563904Y77698858D01*
X47516285Y77651239D01*
X47421047Y77603620D01*
X47182952Y77603620D01*
X47087714Y77651239D01*
X47040095Y77698858D01*
%TO.C,D16*%
X129738380Y48569715D02*
X128738380Y48569715D01*
X128738380Y48807810D01*
X128786000Y48950667D01*
X128881238Y49045905D01*
X128976476Y49093524D01*
X129166952Y49141143D01*
X129309809Y49141143D01*
X129500285Y49093524D01*
X129595523Y49045905D01*
X129690761Y48950667D01*
X129738380Y48807810D01*
X129738380Y48569715D01*
X129738380Y50093524D02*
X129738380Y49522096D01*
X129738380Y49807810D02*
X128738380Y49807810D01*
X128881238Y49712572D01*
X128976476Y49617334D01*
X129024095Y49522096D01*
X128738380Y50950667D02*
X128738380Y50760191D01*
X128786000Y50664953D01*
X128833619Y50617334D01*
X128976476Y50522096D01*
X129166952Y50474477D01*
X129547904Y50474477D01*
X129643142Y50522096D01*
X129690761Y50569715D01*
X129738380Y50664953D01*
X129738380Y50855429D01*
X129690761Y50950667D01*
X129643142Y50998286D01*
X129547904Y51045905D01*
X129309809Y51045905D01*
X129214571Y50998286D01*
X129166952Y50950667D01*
X129119333Y50855429D01*
X129119333Y50664953D01*
X129166952Y50569715D01*
X129214571Y50522096D01*
X129309809Y50474477D01*
%TO.C,R11*%
X75303142Y9581620D02*
X74969809Y10057810D01*
X74731714Y9581620D02*
X74731714Y10581620D01*
X75112666Y10581620D01*
X75207904Y10534000D01*
X75255523Y10486381D01*
X75303142Y10391143D01*
X75303142Y10248286D01*
X75255523Y10153048D01*
X75207904Y10105429D01*
X75112666Y10057810D01*
X74731714Y10057810D01*
X76255523Y9581620D02*
X75684095Y9581620D01*
X75969809Y9581620D02*
X75969809Y10581620D01*
X75874571Y10438762D01*
X75779333Y10343524D01*
X75684095Y10295905D01*
X77207904Y9581620D02*
X76636476Y9581620D01*
X76922190Y9581620D02*
X76922190Y10581620D01*
X76826952Y10438762D01*
X76731714Y10343524D01*
X76636476Y10295905D01*
%TO.C,D38*%
X9794380Y27741715D02*
X8794380Y27741715D01*
X8794380Y27979810D01*
X8842000Y28122667D01*
X8937238Y28217905D01*
X9032476Y28265524D01*
X9222952Y28313143D01*
X9365809Y28313143D01*
X9556285Y28265524D01*
X9651523Y28217905D01*
X9746761Y28122667D01*
X9794380Y27979810D01*
X9794380Y27741715D01*
X8794380Y28646477D02*
X8794380Y29265524D01*
X9175333Y28932191D01*
X9175333Y29075048D01*
X9222952Y29170286D01*
X9270571Y29217905D01*
X9365809Y29265524D01*
X9603904Y29265524D01*
X9699142Y29217905D01*
X9746761Y29170286D01*
X9794380Y29075048D01*
X9794380Y28789334D01*
X9746761Y28694096D01*
X9699142Y28646477D01*
X9222952Y29836953D02*
X9175333Y29741715D01*
X9127714Y29694096D01*
X9032476Y29646477D01*
X8984857Y29646477D01*
X8889619Y29694096D01*
X8842000Y29741715D01*
X8794380Y29836953D01*
X8794380Y30027429D01*
X8842000Y30122667D01*
X8889619Y30170286D01*
X8984857Y30217905D01*
X9032476Y30217905D01*
X9127714Y30170286D01*
X9175333Y30122667D01*
X9222952Y30027429D01*
X9222952Y29836953D01*
X9270571Y29741715D01*
X9318190Y29694096D01*
X9413428Y29646477D01*
X9603904Y29646477D01*
X9699142Y29694096D01*
X9746761Y29741715D01*
X9794380Y29836953D01*
X9794380Y30027429D01*
X9746761Y30122667D01*
X9699142Y30170286D01*
X9603904Y30217905D01*
X9413428Y30217905D01*
X9318190Y30170286D01*
X9270571Y30122667D01*
X9222952Y30027429D01*
%TO.C,D9*%
X86383904Y9143620D02*
X86383904Y10143620D01*
X86622000Y10143620D01*
X86764857Y10096000D01*
X86860095Y10000762D01*
X86907714Y9905524D01*
X86955333Y9715048D01*
X86955333Y9572191D01*
X86907714Y9381715D01*
X86860095Y9286477D01*
X86764857Y9191239D01*
X86622000Y9143620D01*
X86383904Y9143620D01*
X87431523Y9143620D02*
X87622000Y9143620D01*
X87717238Y9191239D01*
X87764857Y9238858D01*
X87860095Y9381715D01*
X87907714Y9572191D01*
X87907714Y9953143D01*
X87860095Y10048381D01*
X87812476Y10096000D01*
X87717238Y10143620D01*
X87526761Y10143620D01*
X87431523Y10096000D01*
X87383904Y10048381D01*
X87336285Y9953143D01*
X87336285Y9715048D01*
X87383904Y9619810D01*
X87431523Y9572191D01*
X87526761Y9524572D01*
X87717238Y9524572D01*
X87812476Y9572191D01*
X87860095Y9619810D01*
X87907714Y9715048D01*
%TO.C,DS1*%
X43769380Y34906596D02*
X42769380Y34906596D01*
X42769380Y35144691D01*
X42817000Y35287548D01*
X42912238Y35382786D01*
X43007476Y35430405D01*
X43197952Y35478024D01*
X43340809Y35478024D01*
X43531285Y35430405D01*
X43626523Y35382786D01*
X43721761Y35287548D01*
X43769380Y35144691D01*
X43769380Y34906596D01*
X43721761Y35858977D02*
X43769380Y36001834D01*
X43769380Y36239929D01*
X43721761Y36335167D01*
X43674142Y36382786D01*
X43578904Y36430405D01*
X43483666Y36430405D01*
X43388428Y36382786D01*
X43340809Y36335167D01*
X43293190Y36239929D01*
X43245571Y36049453D01*
X43197952Y35954215D01*
X43150333Y35906596D01*
X43055095Y35858977D01*
X42959857Y35858977D01*
X42864619Y35906596D01*
X42817000Y35954215D01*
X42769380Y36049453D01*
X42769380Y36287548D01*
X42817000Y36430405D01*
X43769380Y37382786D02*
X43769380Y36811358D01*
X43769380Y37097072D02*
X42769380Y37097072D01*
X42912238Y37001834D01*
X43007476Y36906596D01*
X43055095Y36811358D01*
%TO.C,D27*%
X55427714Y78343620D02*
X55427714Y79343620D01*
X55665809Y79343620D01*
X55808666Y79296000D01*
X55903904Y79200762D01*
X55951523Y79105524D01*
X55999142Y78915048D01*
X55999142Y78772191D01*
X55951523Y78581715D01*
X55903904Y78486477D01*
X55808666Y78391239D01*
X55665809Y78343620D01*
X55427714Y78343620D01*
X56380095Y79248381D02*
X56427714Y79296000D01*
X56522952Y79343620D01*
X56761047Y79343620D01*
X56856285Y79296000D01*
X56903904Y79248381D01*
X56951523Y79153143D01*
X56951523Y79057905D01*
X56903904Y78915048D01*
X56332476Y78343620D01*
X56951523Y78343620D01*
X57284857Y79343620D02*
X57951523Y79343620D01*
X57522952Y78343620D01*
%TO.C,R15*%
X109339142Y73333620D02*
X109005809Y73809810D01*
X108767714Y73333620D02*
X108767714Y74333620D01*
X109148666Y74333620D01*
X109243904Y74286000D01*
X109291523Y74238381D01*
X109339142Y74143143D01*
X109339142Y74000286D01*
X109291523Y73905048D01*
X109243904Y73857429D01*
X109148666Y73809810D01*
X108767714Y73809810D01*
X110291523Y73333620D02*
X109720095Y73333620D01*
X110005809Y73333620D02*
X110005809Y74333620D01*
X109910571Y74190762D01*
X109815333Y74095524D01*
X109720095Y74047905D01*
X111196285Y74333620D02*
X110720095Y74333620D01*
X110672476Y73857429D01*
X110720095Y73905048D01*
X110815333Y73952667D01*
X111053428Y73952667D01*
X111148666Y73905048D01*
X111196285Y73857429D01*
X111243904Y73762191D01*
X111243904Y73524096D01*
X111196285Y73428858D01*
X111148666Y73381239D01*
X111053428Y73333620D01*
X110815333Y73333620D01*
X110720095Y73381239D01*
X110672476Y73428858D01*
%TO.C,D13*%
X129794380Y25201715D02*
X128794380Y25201715D01*
X128794380Y25439810D01*
X128842000Y25582667D01*
X128937238Y25677905D01*
X129032476Y25725524D01*
X129222952Y25773143D01*
X129365809Y25773143D01*
X129556285Y25725524D01*
X129651523Y25677905D01*
X129746761Y25582667D01*
X129794380Y25439810D01*
X129794380Y25201715D01*
X129794380Y26725524D02*
X129794380Y26154096D01*
X129794380Y26439810D02*
X128794380Y26439810D01*
X128937238Y26344572D01*
X129032476Y26249334D01*
X129080095Y26154096D01*
X128794380Y27058858D02*
X128794380Y27677905D01*
X129175333Y27344572D01*
X129175333Y27487429D01*
X129222952Y27582667D01*
X129270571Y27630286D01*
X129365809Y27677905D01*
X129603904Y27677905D01*
X129699142Y27630286D01*
X129746761Y27582667D01*
X129794380Y27487429D01*
X129794380Y27201715D01*
X129746761Y27106477D01*
X129699142Y27058858D01*
%TO.C,C6*%
X95989142Y26689334D02*
X96036761Y26641715D01*
X96084380Y26498858D01*
X96084380Y26403620D01*
X96036761Y26260762D01*
X95941523Y26165524D01*
X95846285Y26117905D01*
X95655809Y26070286D01*
X95512952Y26070286D01*
X95322476Y26117905D01*
X95227238Y26165524D01*
X95132000Y26260762D01*
X95084380Y26403620D01*
X95084380Y26498858D01*
X95132000Y26641715D01*
X95179619Y26689334D01*
X95084380Y27546477D02*
X95084380Y27356000D01*
X95132000Y27260762D01*
X95179619Y27213143D01*
X95322476Y27117905D01*
X95512952Y27070286D01*
X95893904Y27070286D01*
X95989142Y27117905D01*
X96036761Y27165524D01*
X96084380Y27260762D01*
X96084380Y27451239D01*
X96036761Y27546477D01*
X95989142Y27594096D01*
X95893904Y27641715D01*
X95655809Y27641715D01*
X95560571Y27594096D01*
X95512952Y27546477D01*
X95465333Y27451239D01*
X95465333Y27260762D01*
X95512952Y27165524D01*
X95560571Y27117905D01*
X95655809Y27070286D01*
%TO.C,C10*%
X12819142Y4088858D02*
X12771523Y4041239D01*
X12628666Y3993620D01*
X12533428Y3993620D01*
X12390571Y4041239D01*
X12295333Y4136477D01*
X12247714Y4231715D01*
X12200095Y4422191D01*
X12200095Y4565048D01*
X12247714Y4755524D01*
X12295333Y4850762D01*
X12390571Y4946000D01*
X12533428Y4993620D01*
X12628666Y4993620D01*
X12771523Y4946000D01*
X12819142Y4898381D01*
X13771523Y3993620D02*
X13200095Y3993620D01*
X13485809Y3993620D02*
X13485809Y4993620D01*
X13390571Y4850762D01*
X13295333Y4755524D01*
X13200095Y4707905D01*
X14390571Y4993620D02*
X14485809Y4993620D01*
X14581047Y4946000D01*
X14628666Y4898381D01*
X14676285Y4803143D01*
X14723904Y4612667D01*
X14723904Y4374572D01*
X14676285Y4184096D01*
X14628666Y4088858D01*
X14581047Y4041239D01*
X14485809Y3993620D01*
X14390571Y3993620D01*
X14295333Y4041239D01*
X14247714Y4088858D01*
X14200095Y4184096D01*
X14152476Y4374572D01*
X14152476Y4612667D01*
X14200095Y4803143D01*
X14247714Y4898381D01*
X14295333Y4946000D01*
X14390571Y4993620D01*
%TO.C,R2*%
X109815333Y64953620D02*
X109482000Y65429810D01*
X109243904Y64953620D02*
X109243904Y65953620D01*
X109624857Y65953620D01*
X109720095Y65906000D01*
X109767714Y65858381D01*
X109815333Y65763143D01*
X109815333Y65620286D01*
X109767714Y65525048D01*
X109720095Y65477429D01*
X109624857Y65429810D01*
X109243904Y65429810D01*
X110196285Y65858381D02*
X110243904Y65906000D01*
X110339142Y65953620D01*
X110577238Y65953620D01*
X110672476Y65906000D01*
X110720095Y65858381D01*
X110767714Y65763143D01*
X110767714Y65667905D01*
X110720095Y65525048D01*
X110148666Y64953620D01*
X110767714Y64953620D01*
%TO.C,C1*%
X128881142Y41147334D02*
X128928761Y41099715D01*
X128976380Y40956858D01*
X128976380Y40861620D01*
X128928761Y40718762D01*
X128833523Y40623524D01*
X128738285Y40575905D01*
X128547809Y40528286D01*
X128404952Y40528286D01*
X128214476Y40575905D01*
X128119238Y40623524D01*
X128024000Y40718762D01*
X127976380Y40861620D01*
X127976380Y40956858D01*
X128024000Y41099715D01*
X128071619Y41147334D01*
X128976380Y42099715D02*
X128976380Y41528286D01*
X128976380Y41814000D02*
X127976380Y41814000D01*
X128119238Y41718762D01*
X128214476Y41623524D01*
X128262095Y41528286D01*
%TO.C,D11*%
X101147714Y9143620D02*
X101147714Y10143620D01*
X101385809Y10143620D01*
X101528666Y10096000D01*
X101623904Y10000762D01*
X101671523Y9905524D01*
X101719142Y9715048D01*
X101719142Y9572191D01*
X101671523Y9381715D01*
X101623904Y9286477D01*
X101528666Y9191239D01*
X101385809Y9143620D01*
X101147714Y9143620D01*
X102671523Y9143620D02*
X102100095Y9143620D01*
X102385809Y9143620D02*
X102385809Y10143620D01*
X102290571Y10000762D01*
X102195333Y9905524D01*
X102100095Y9857905D01*
X103623904Y9143620D02*
X103052476Y9143620D01*
X103338190Y9143620D02*
X103338190Y10143620D01*
X103242952Y10000762D01*
X103147714Y9905524D01*
X103052476Y9857905D01*
%TO.C,C3*%
X38187333Y70762858D02*
X38139714Y70715239D01*
X37996857Y70667620D01*
X37901619Y70667620D01*
X37758761Y70715239D01*
X37663523Y70810477D01*
X37615904Y70905715D01*
X37568285Y71096191D01*
X37568285Y71239048D01*
X37615904Y71429524D01*
X37663523Y71524762D01*
X37758761Y71620000D01*
X37901619Y71667620D01*
X37996857Y71667620D01*
X38139714Y71620000D01*
X38187333Y71572381D01*
X38520666Y71667620D02*
X39139714Y71667620D01*
X38806380Y71286667D01*
X38949238Y71286667D01*
X39044476Y71239048D01*
X39092095Y71191429D01*
X39139714Y71096191D01*
X39139714Y70858096D01*
X39092095Y70762858D01*
X39044476Y70715239D01*
X38949238Y70667620D01*
X38663523Y70667620D01*
X38568285Y70715239D01*
X38520666Y70762858D01*
%TO.C,D6*%
X63509824Y9143620D02*
X63509824Y10143620D01*
X63747920Y10143620D01*
X63890777Y10096000D01*
X63986015Y10000762D01*
X64033634Y9905524D01*
X64081253Y9715048D01*
X64081253Y9572191D01*
X64033634Y9381715D01*
X63986015Y9286477D01*
X63890777Y9191239D01*
X63747920Y9143620D01*
X63509824Y9143620D01*
X64938396Y10143620D02*
X64747920Y10143620D01*
X64652681Y10096000D01*
X64605062Y10048381D01*
X64509824Y9905524D01*
X64462205Y9715048D01*
X64462205Y9334096D01*
X64509824Y9238858D01*
X64557443Y9191239D01*
X64652681Y9143620D01*
X64843158Y9143620D01*
X64938396Y9191239D01*
X64986015Y9238858D01*
X65033634Y9334096D01*
X65033634Y9572191D01*
X64986015Y9667429D01*
X64938396Y9715048D01*
X64843158Y9762667D01*
X64652681Y9762667D01*
X64557443Y9715048D01*
X64509824Y9667429D01*
X64462205Y9572191D01*
%TO.C,D35*%
X9794380Y50601715D02*
X8794380Y50601715D01*
X8794380Y50839810D01*
X8842000Y50982667D01*
X8937238Y51077905D01*
X9032476Y51125524D01*
X9222952Y51173143D01*
X9365809Y51173143D01*
X9556285Y51125524D01*
X9651523Y51077905D01*
X9746761Y50982667D01*
X9794380Y50839810D01*
X9794380Y50601715D01*
X8794380Y51506477D02*
X8794380Y52125524D01*
X9175333Y51792191D01*
X9175333Y51935048D01*
X9222952Y52030286D01*
X9270571Y52077905D01*
X9365809Y52125524D01*
X9603904Y52125524D01*
X9699142Y52077905D01*
X9746761Y52030286D01*
X9794380Y51935048D01*
X9794380Y51649334D01*
X9746761Y51554096D01*
X9699142Y51506477D01*
X8794380Y53030286D02*
X8794380Y52554096D01*
X9270571Y52506477D01*
X9222952Y52554096D01*
X9175333Y52649334D01*
X9175333Y52887429D01*
X9222952Y52982667D01*
X9270571Y53030286D01*
X9365809Y53077905D01*
X9603904Y53077905D01*
X9699142Y53030286D01*
X9746761Y52982667D01*
X9794380Y52887429D01*
X9794380Y52649334D01*
X9746761Y52554096D01*
X9699142Y52506477D01*
%TO.C,H3*%
X3624561Y8299154D02*
X3624561Y9299154D01*
X3624561Y8822963D02*
X4195989Y8822963D01*
X4195989Y8299154D02*
X4195989Y9299154D01*
X4576942Y9299154D02*
X5195989Y9299154D01*
X4862656Y8918201D01*
X5005513Y8918201D01*
X5100751Y8870582D01*
X5148370Y8822963D01*
X5195989Y8727725D01*
X5195989Y8489630D01*
X5148370Y8394392D01*
X5100751Y8346773D01*
X5005513Y8299154D01*
X4719799Y8299154D01*
X4624561Y8346773D01*
X4576942Y8394392D01*
%TO.C,D14*%
X129794380Y32821715D02*
X128794380Y32821715D01*
X128794380Y33059810D01*
X128842000Y33202667D01*
X128937238Y33297905D01*
X129032476Y33345524D01*
X129222952Y33393143D01*
X129365809Y33393143D01*
X129556285Y33345524D01*
X129651523Y33297905D01*
X129746761Y33202667D01*
X129794380Y33059810D01*
X129794380Y32821715D01*
X129794380Y34345524D02*
X129794380Y33774096D01*
X129794380Y34059810D02*
X128794380Y34059810D01*
X128937238Y33964572D01*
X129032476Y33869334D01*
X129080095Y33774096D01*
X129127714Y35202667D02*
X129794380Y35202667D01*
X128746761Y34964572D02*
X129461047Y34726477D01*
X129461047Y35345524D01*
%TO.C,R4*%
X38245333Y59491620D02*
X37912000Y59967810D01*
X37673904Y59491620D02*
X37673904Y60491620D01*
X38054857Y60491620D01*
X38150095Y60444000D01*
X38197714Y60396381D01*
X38245333Y60301143D01*
X38245333Y60158286D01*
X38197714Y60063048D01*
X38150095Y60015429D01*
X38054857Y59967810D01*
X37673904Y59967810D01*
X39102476Y60158286D02*
X39102476Y59491620D01*
X38864380Y60539239D02*
X38626285Y59824953D01*
X39245333Y59824953D01*
%TO.C,C11*%
X122039142Y7388858D02*
X121991523Y7341239D01*
X121848666Y7293620D01*
X121753428Y7293620D01*
X121610571Y7341239D01*
X121515333Y7436477D01*
X121467714Y7531715D01*
X121420095Y7722191D01*
X121420095Y7865048D01*
X121467714Y8055524D01*
X121515333Y8150762D01*
X121610571Y8246000D01*
X121753428Y8293620D01*
X121848666Y8293620D01*
X121991523Y8246000D01*
X122039142Y8198381D01*
X122991523Y7293620D02*
X122420095Y7293620D01*
X122705809Y7293620D02*
X122705809Y8293620D01*
X122610571Y8150762D01*
X122515333Y8055524D01*
X122420095Y8007905D01*
X123943904Y7293620D02*
X123372476Y7293620D01*
X123658190Y7293620D02*
X123658190Y8293620D01*
X123562952Y8150762D01*
X123467714Y8055524D01*
X123372476Y8007905D01*
%TO.C,D33*%
X9794380Y65841715D02*
X8794380Y65841715D01*
X8794380Y66079810D01*
X8842000Y66222667D01*
X8937238Y66317905D01*
X9032476Y66365524D01*
X9222952Y66413143D01*
X9365809Y66413143D01*
X9556285Y66365524D01*
X9651523Y66317905D01*
X9746761Y66222667D01*
X9794380Y66079810D01*
X9794380Y65841715D01*
X8794380Y66746477D02*
X8794380Y67365524D01*
X9175333Y67032191D01*
X9175333Y67175048D01*
X9222952Y67270286D01*
X9270571Y67317905D01*
X9365809Y67365524D01*
X9603904Y67365524D01*
X9699142Y67317905D01*
X9746761Y67270286D01*
X9794380Y67175048D01*
X9794380Y66889334D01*
X9746761Y66794096D01*
X9699142Y66746477D01*
X8794380Y67698858D02*
X8794380Y68317905D01*
X9175333Y67984572D01*
X9175333Y68127429D01*
X9222952Y68222667D01*
X9270571Y68270286D01*
X9365809Y68317905D01*
X9603904Y68317905D01*
X9699142Y68270286D01*
X9746761Y68222667D01*
X9794380Y68127429D01*
X9794380Y67841715D01*
X9746761Y67746477D01*
X9699142Y67698858D01*
%TO.C,R9*%
X52245333Y9073620D02*
X51912000Y9549810D01*
X51673904Y9073620D02*
X51673904Y10073620D01*
X52054857Y10073620D01*
X52150095Y10026000D01*
X52197714Y9978381D01*
X52245333Y9883143D01*
X52245333Y9740286D01*
X52197714Y9645048D01*
X52150095Y9597429D01*
X52054857Y9549810D01*
X51673904Y9549810D01*
X52721523Y9073620D02*
X52912000Y9073620D01*
X53007238Y9121239D01*
X53054857Y9168858D01*
X53150095Y9311715D01*
X53197714Y9502191D01*
X53197714Y9883143D01*
X53150095Y9978381D01*
X53102476Y10026000D01*
X53007238Y10073620D01*
X52816761Y10073620D01*
X52721523Y10026000D01*
X52673904Y9978381D01*
X52626285Y9883143D01*
X52626285Y9645048D01*
X52673904Y9549810D01*
X52721523Y9502191D01*
X52816761Y9454572D01*
X53007238Y9454572D01*
X53102476Y9502191D01*
X53150095Y9549810D01*
X53197714Y9645048D01*
%TO.C,C12*%
X122039142Y83588858D02*
X121991523Y83541239D01*
X121848666Y83493620D01*
X121753428Y83493620D01*
X121610571Y83541239D01*
X121515333Y83636477D01*
X121467714Y83731715D01*
X121420095Y83922191D01*
X121420095Y84065048D01*
X121467714Y84255524D01*
X121515333Y84350762D01*
X121610571Y84446000D01*
X121753428Y84493620D01*
X121848666Y84493620D01*
X121991523Y84446000D01*
X122039142Y84398381D01*
X122991523Y83493620D02*
X122420095Y83493620D01*
X122705809Y83493620D02*
X122705809Y84493620D01*
X122610571Y84350762D01*
X122515333Y84255524D01*
X122420095Y84207905D01*
X123372476Y84398381D02*
X123420095Y84446000D01*
X123515333Y84493620D01*
X123753428Y84493620D01*
X123848666Y84446000D01*
X123896285Y84398381D01*
X123943904Y84303143D01*
X123943904Y84207905D01*
X123896285Y84065048D01*
X123324857Y83493620D01*
X123943904Y83493620D01*
%TO.C,D31*%
X24947714Y78343620D02*
X24947714Y79343620D01*
X25185809Y79343620D01*
X25328666Y79296000D01*
X25423904Y79200762D01*
X25471523Y79105524D01*
X25519142Y78915048D01*
X25519142Y78772191D01*
X25471523Y78581715D01*
X25423904Y78486477D01*
X25328666Y78391239D01*
X25185809Y78343620D01*
X24947714Y78343620D01*
X25852476Y79343620D02*
X26471523Y79343620D01*
X26138190Y78962667D01*
X26281047Y78962667D01*
X26376285Y78915048D01*
X26423904Y78867429D01*
X26471523Y78772191D01*
X26471523Y78534096D01*
X26423904Y78438858D01*
X26376285Y78391239D01*
X26281047Y78343620D01*
X25995333Y78343620D01*
X25900095Y78391239D01*
X25852476Y78438858D01*
X27423904Y78343620D02*
X26852476Y78343620D01*
X27138190Y78343620D02*
X27138190Y79343620D01*
X27042952Y79200762D01*
X26947714Y79105524D01*
X26852476Y79057905D01*
%TO.C,D34*%
X9794380Y58221715D02*
X8794380Y58221715D01*
X8794380Y58459810D01*
X8842000Y58602667D01*
X8937238Y58697905D01*
X9032476Y58745524D01*
X9222952Y58793143D01*
X9365809Y58793143D01*
X9556285Y58745524D01*
X9651523Y58697905D01*
X9746761Y58602667D01*
X9794380Y58459810D01*
X9794380Y58221715D01*
X8794380Y59126477D02*
X8794380Y59745524D01*
X9175333Y59412191D01*
X9175333Y59555048D01*
X9222952Y59650286D01*
X9270571Y59697905D01*
X9365809Y59745524D01*
X9603904Y59745524D01*
X9699142Y59697905D01*
X9746761Y59650286D01*
X9794380Y59555048D01*
X9794380Y59269334D01*
X9746761Y59174096D01*
X9699142Y59126477D01*
X9127714Y60602667D02*
X9794380Y60602667D01*
X8746761Y60364572D02*
X9461047Y60126477D01*
X9461047Y60745524D01*
%TO.C,C13*%
X12819142Y83588858D02*
X12771523Y83541239D01*
X12628666Y83493620D01*
X12533428Y83493620D01*
X12390571Y83541239D01*
X12295333Y83636477D01*
X12247714Y83731715D01*
X12200095Y83922191D01*
X12200095Y84065048D01*
X12247714Y84255524D01*
X12295333Y84350762D01*
X12390571Y84446000D01*
X12533428Y84493620D01*
X12628666Y84493620D01*
X12771523Y84446000D01*
X12819142Y84398381D01*
X13771523Y83493620D02*
X13200095Y83493620D01*
X13485809Y83493620D02*
X13485809Y84493620D01*
X13390571Y84350762D01*
X13295333Y84255524D01*
X13200095Y84207905D01*
X14104857Y84493620D02*
X14723904Y84493620D01*
X14390571Y84112667D01*
X14533428Y84112667D01*
X14628666Y84065048D01*
X14676285Y84017429D01*
X14723904Y83922191D01*
X14723904Y83684096D01*
X14676285Y83588858D01*
X14628666Y83541239D01*
X14533428Y83493620D01*
X14247714Y83493620D01*
X14152476Y83541239D01*
X14104857Y83588858D01*
%TO.C,U2*%
X99854380Y26094096D02*
X100663904Y26094096D01*
X100759142Y26141715D01*
X100806761Y26189334D01*
X100854380Y26284572D01*
X100854380Y26475048D01*
X100806761Y26570286D01*
X100759142Y26617905D01*
X100663904Y26665524D01*
X99854380Y26665524D01*
X99949619Y27094096D02*
X99902000Y27141715D01*
X99854380Y27236953D01*
X99854380Y27475048D01*
X99902000Y27570286D01*
X99949619Y27617905D01*
X100044857Y27665524D01*
X100140095Y27665524D01*
X100282952Y27617905D01*
X100854380Y27046477D01*
X100854380Y27665524D01*
%TO.C,D32*%
X9794380Y73461715D02*
X8794380Y73461715D01*
X8794380Y73699810D01*
X8842000Y73842667D01*
X8937238Y73937905D01*
X9032476Y73985524D01*
X9222952Y74033143D01*
X9365809Y74033143D01*
X9556285Y73985524D01*
X9651523Y73937905D01*
X9746761Y73842667D01*
X9794380Y73699810D01*
X9794380Y73461715D01*
X8794380Y74366477D02*
X8794380Y74985524D01*
X9175333Y74652191D01*
X9175333Y74795048D01*
X9222952Y74890286D01*
X9270571Y74937905D01*
X9365809Y74985524D01*
X9603904Y74985524D01*
X9699142Y74937905D01*
X9746761Y74890286D01*
X9794380Y74795048D01*
X9794380Y74509334D01*
X9746761Y74414096D01*
X9699142Y74366477D01*
X8889619Y75366477D02*
X8842000Y75414096D01*
X8794380Y75509334D01*
X8794380Y75747429D01*
X8842000Y75842667D01*
X8889619Y75890286D01*
X8984857Y75937905D01*
X9080095Y75937905D01*
X9222952Y75890286D01*
X9794380Y75318858D01*
X9794380Y75937905D01*
%TO.C,C7*%
X111229142Y26689334D02*
X111276761Y26641715D01*
X111324380Y26498858D01*
X111324380Y26403620D01*
X111276761Y26260762D01*
X111181523Y26165524D01*
X111086285Y26117905D01*
X110895809Y26070286D01*
X110752952Y26070286D01*
X110562476Y26117905D01*
X110467238Y26165524D01*
X110372000Y26260762D01*
X110324380Y26403620D01*
X110324380Y26498858D01*
X110372000Y26641715D01*
X110419619Y26689334D01*
X110324380Y27022667D02*
X110324380Y27689334D01*
X111324380Y27260762D01*
%TO.C,BZ1*%
X26083047Y39637429D02*
X26225904Y39589810D01*
X26273523Y39542191D01*
X26321142Y39446953D01*
X26321142Y39304096D01*
X26273523Y39208858D01*
X26225904Y39161239D01*
X26130666Y39113620D01*
X25749714Y39113620D01*
X25749714Y40113620D01*
X26083047Y40113620D01*
X26178285Y40066000D01*
X26225904Y40018381D01*
X26273523Y39923143D01*
X26273523Y39827905D01*
X26225904Y39732667D01*
X26178285Y39685048D01*
X26083047Y39637429D01*
X25749714Y39637429D01*
X26654476Y40113620D02*
X27321142Y40113620D01*
X26654476Y39113620D01*
X27321142Y39113620D01*
X28225904Y39113620D02*
X27654476Y39113620D01*
X27940190Y39113620D02*
X27940190Y40113620D01*
X27844952Y39970762D01*
X27749714Y39875524D01*
X27654476Y39827905D01*
%TO.C,D50*%
X125040380Y11661715D02*
X124040380Y11661715D01*
X124040380Y11899810D01*
X124088000Y12042667D01*
X124183238Y12137905D01*
X124278476Y12185524D01*
X124468952Y12233143D01*
X124611809Y12233143D01*
X124802285Y12185524D01*
X124897523Y12137905D01*
X124992761Y12042667D01*
X125040380Y11899810D01*
X125040380Y11661715D01*
X124040380Y13137905D02*
X124040380Y12661715D01*
X124516571Y12614096D01*
X124468952Y12661715D01*
X124421333Y12756953D01*
X124421333Y12995048D01*
X124468952Y13090286D01*
X124516571Y13137905D01*
X124611809Y13185524D01*
X124849904Y13185524D01*
X124945142Y13137905D01*
X124992761Y13090286D01*
X125040380Y12995048D01*
X125040380Y12756953D01*
X124992761Y12661715D01*
X124945142Y12614096D01*
X124040380Y13804572D02*
X124040380Y13899810D01*
X124088000Y13995048D01*
X124135619Y14042667D01*
X124230857Y14090286D01*
X124421333Y14137905D01*
X124659428Y14137905D01*
X124849904Y14090286D01*
X124945142Y14042667D01*
X124992761Y13995048D01*
X125040380Y13899810D01*
X125040380Y13804572D01*
X124992761Y13709334D01*
X124945142Y13661715D01*
X124849904Y13614096D01*
X124659428Y13566477D01*
X124421333Y13566477D01*
X124230857Y13614096D01*
X124135619Y13661715D01*
X124088000Y13709334D01*
X124040380Y13804572D01*
%TO.C,D30*%
X32567714Y78343620D02*
X32567714Y79343620D01*
X32805809Y79343620D01*
X32948666Y79296000D01*
X33043904Y79200762D01*
X33091523Y79105524D01*
X33139142Y78915048D01*
X33139142Y78772191D01*
X33091523Y78581715D01*
X33043904Y78486477D01*
X32948666Y78391239D01*
X32805809Y78343620D01*
X32567714Y78343620D01*
X33472476Y79343620D02*
X34091523Y79343620D01*
X33758190Y78962667D01*
X33901047Y78962667D01*
X33996285Y78915048D01*
X34043904Y78867429D01*
X34091523Y78772191D01*
X34091523Y78534096D01*
X34043904Y78438858D01*
X33996285Y78391239D01*
X33901047Y78343620D01*
X33615333Y78343620D01*
X33520095Y78391239D01*
X33472476Y78438858D01*
X34710571Y79343620D02*
X34805809Y79343620D01*
X34901047Y79296000D01*
X34948666Y79248381D01*
X34996285Y79153143D01*
X35043904Y78962667D01*
X35043904Y78724572D01*
X34996285Y78534096D01*
X34948666Y78438858D01*
X34901047Y78391239D01*
X34805809Y78343620D01*
X34710571Y78343620D01*
X34615333Y78391239D01*
X34567714Y78438858D01*
X34520095Y78534096D01*
X34472476Y78724572D01*
X34472476Y78962667D01*
X34520095Y79153143D01*
X34567714Y79248381D01*
X34615333Y79296000D01*
X34710571Y79343620D01*
%TO.C,C9*%
X48005333Y26948858D02*
X47957714Y26901239D01*
X47814857Y26853620D01*
X47719619Y26853620D01*
X47576761Y26901239D01*
X47481523Y26996477D01*
X47433904Y27091715D01*
X47386285Y27282191D01*
X47386285Y27425048D01*
X47433904Y27615524D01*
X47481523Y27710762D01*
X47576761Y27806000D01*
X47719619Y27853620D01*
X47814857Y27853620D01*
X47957714Y27806000D01*
X48005333Y27758381D01*
X48481523Y26853620D02*
X48672000Y26853620D01*
X48767238Y26901239D01*
X48814857Y26948858D01*
X48910095Y27091715D01*
X48957714Y27282191D01*
X48957714Y27663143D01*
X48910095Y27758381D01*
X48862476Y27806000D01*
X48767238Y27853620D01*
X48576761Y27853620D01*
X48481523Y27806000D01*
X48433904Y27758381D01*
X48386285Y27663143D01*
X48386285Y27425048D01*
X48433904Y27329810D01*
X48481523Y27282191D01*
X48576761Y27234572D01*
X48767238Y27234572D01*
X48862476Y27282191D01*
X48910095Y27329810D01*
X48957714Y27425048D01*
%TO.C,SW3*%
X74612666Y13819239D02*
X74755523Y13771620D01*
X74993619Y13771620D01*
X75088857Y13819239D01*
X75136476Y13866858D01*
X75184095Y13962096D01*
X75184095Y14057334D01*
X75136476Y14152572D01*
X75088857Y14200191D01*
X74993619Y14247810D01*
X74803142Y14295429D01*
X74707904Y14343048D01*
X74660285Y14390667D01*
X74612666Y14485905D01*
X74612666Y14581143D01*
X74660285Y14676381D01*
X74707904Y14724000D01*
X74803142Y14771620D01*
X75041238Y14771620D01*
X75184095Y14724000D01*
X75517428Y14771620D02*
X75755523Y13771620D01*
X75946000Y14485905D01*
X76136476Y13771620D01*
X76374571Y14771620D01*
X76660285Y14771620D02*
X77279333Y14771620D01*
X76946000Y14390667D01*
X77088857Y14390667D01*
X77184095Y14343048D01*
X77231714Y14295429D01*
X77279333Y14200191D01*
X77279333Y13962096D01*
X77231714Y13866858D01*
X77184095Y13819239D01*
X77088857Y13771620D01*
X76803142Y13771620D01*
X76707904Y13819239D01*
X76660285Y13866858D01*
%TO.C,D20*%
X108767714Y78343620D02*
X108767714Y79343620D01*
X109005809Y79343620D01*
X109148666Y79296000D01*
X109243904Y79200762D01*
X109291523Y79105524D01*
X109339142Y78915048D01*
X109339142Y78772191D01*
X109291523Y78581715D01*
X109243904Y78486477D01*
X109148666Y78391239D01*
X109005809Y78343620D01*
X108767714Y78343620D01*
X109720095Y79248381D02*
X109767714Y79296000D01*
X109862952Y79343620D01*
X110101047Y79343620D01*
X110196285Y79296000D01*
X110243904Y79248381D01*
X110291523Y79153143D01*
X110291523Y79057905D01*
X110243904Y78915048D01*
X109672476Y78343620D01*
X110291523Y78343620D01*
X110910571Y79343620D02*
X111005809Y79343620D01*
X111101047Y79296000D01*
X111148666Y79248381D01*
X111196285Y79153143D01*
X111243904Y78962667D01*
X111243904Y78724572D01*
X111196285Y78534096D01*
X111148666Y78438858D01*
X111101047Y78391239D01*
X111005809Y78343620D01*
X110910571Y78343620D01*
X110815333Y78391239D01*
X110767714Y78438858D01*
X110720095Y78534096D01*
X110672476Y78724572D01*
X110672476Y78962667D01*
X110720095Y79153143D01*
X110767714Y79248381D01*
X110815333Y79296000D01*
X110910571Y79343620D01*
%TO.C,H4*%
X133604095Y8319620D02*
X133604095Y9319620D01*
X133604095Y8843429D02*
X134175523Y8843429D01*
X134175523Y8319620D02*
X134175523Y9319620D01*
X135080285Y8986286D02*
X135080285Y8319620D01*
X134842190Y9367239D02*
X134604095Y8652953D01*
X135223142Y8652953D01*
%TO.C,R3*%
X41235333Y65079620D02*
X40902000Y65555810D01*
X40663904Y65079620D02*
X40663904Y66079620D01*
X41044857Y66079620D01*
X41140095Y66032000D01*
X41187714Y65984381D01*
X41235333Y65889143D01*
X41235333Y65746286D01*
X41187714Y65651048D01*
X41140095Y65603429D01*
X41044857Y65555810D01*
X40663904Y65555810D01*
X41568666Y66079620D02*
X42187714Y66079620D01*
X41854380Y65698667D01*
X41997238Y65698667D01*
X42092476Y65651048D01*
X42140095Y65603429D01*
X42187714Y65508191D01*
X42187714Y65270096D01*
X42140095Y65174858D01*
X42092476Y65127239D01*
X41997238Y65079620D01*
X41711523Y65079620D01*
X41616285Y65127239D01*
X41568666Y65174858D01*
%TO.C,U3*%
X52489380Y25664096D02*
X53298904Y25664096D01*
X53394142Y25711715D01*
X53441761Y25759334D01*
X53489380Y25854572D01*
X53489380Y26045048D01*
X53441761Y26140286D01*
X53394142Y26187905D01*
X53298904Y26235524D01*
X52489380Y26235524D01*
X52489380Y26616477D02*
X52489380Y27235524D01*
X52870333Y26902191D01*
X52870333Y27045048D01*
X52917952Y27140286D01*
X52965571Y27187905D01*
X53060809Y27235524D01*
X53298904Y27235524D01*
X53394142Y27187905D01*
X53441761Y27140286D01*
X53489380Y27045048D01*
X53489380Y26759334D01*
X53441761Y26664096D01*
X53394142Y26616477D01*
%TO.C,R1*%
X125040380Y16939334D02*
X124564190Y16606000D01*
X125040380Y16367905D02*
X124040380Y16367905D01*
X124040380Y16748858D01*
X124088000Y16844096D01*
X124135619Y16891715D01*
X124230857Y16939334D01*
X124373714Y16939334D01*
X124468952Y16891715D01*
X124516571Y16844096D01*
X124564190Y16748858D01*
X124564190Y16367905D01*
X125040380Y17891715D02*
X125040380Y17320286D01*
X125040380Y17606000D02*
X124040380Y17606000D01*
X124183238Y17510762D01*
X124278476Y17415524D01*
X124326095Y17320286D01*
%TO.C,R13*%
X37574380Y45585143D02*
X37098190Y45251810D01*
X37574380Y45013715D02*
X36574380Y45013715D01*
X36574380Y45394667D01*
X36622000Y45489905D01*
X36669619Y45537524D01*
X36764857Y45585143D01*
X36907714Y45585143D01*
X37002952Y45537524D01*
X37050571Y45489905D01*
X37098190Y45394667D01*
X37098190Y45013715D01*
X37574380Y46537524D02*
X37574380Y45966096D01*
X37574380Y46251810D02*
X36574380Y46251810D01*
X36717238Y46156572D01*
X36812476Y46061334D01*
X36860095Y45966096D01*
X36574380Y46870858D02*
X36574380Y47489905D01*
X36955333Y47156572D01*
X36955333Y47299429D01*
X37002952Y47394667D01*
X37050571Y47442286D01*
X37145809Y47489905D01*
X37383904Y47489905D01*
X37479142Y47442286D01*
X37526761Y47394667D01*
X37574380Y47299429D01*
X37574380Y47013715D01*
X37526761Y46918477D01*
X37479142Y46870858D01*
%TO.C,R14*%
X109339142Y63173620D02*
X109005809Y63649810D01*
X108767714Y63173620D02*
X108767714Y64173620D01*
X109148666Y64173620D01*
X109243904Y64126000D01*
X109291523Y64078381D01*
X109339142Y63983143D01*
X109339142Y63840286D01*
X109291523Y63745048D01*
X109243904Y63697429D01*
X109148666Y63649810D01*
X108767714Y63649810D01*
X110291523Y63173620D02*
X109720095Y63173620D01*
X110005809Y63173620D02*
X110005809Y64173620D01*
X109910571Y64030762D01*
X109815333Y63935524D01*
X109720095Y63887905D01*
X111148666Y63840286D02*
X111148666Y63173620D01*
X110910571Y64221239D02*
X110672476Y63506953D01*
X111291523Y63506953D01*
%TO.C,U4*%
X11864380Y68844096D02*
X12673904Y68844096D01*
X12769142Y68891715D01*
X12816761Y68939334D01*
X12864380Y69034572D01*
X12864380Y69225048D01*
X12816761Y69320286D01*
X12769142Y69367905D01*
X12673904Y69415524D01*
X11864380Y69415524D01*
X12197714Y70320286D02*
X12864380Y70320286D01*
X11816761Y70082191D02*
X12531047Y69844096D01*
X12531047Y70463143D01*
%TO.C,D24*%
X78287714Y78343620D02*
X78287714Y79343620D01*
X78525809Y79343620D01*
X78668666Y79296000D01*
X78763904Y79200762D01*
X78811523Y79105524D01*
X78859142Y78915048D01*
X78859142Y78772191D01*
X78811523Y78581715D01*
X78763904Y78486477D01*
X78668666Y78391239D01*
X78525809Y78343620D01*
X78287714Y78343620D01*
X79240095Y79248381D02*
X79287714Y79296000D01*
X79382952Y79343620D01*
X79621047Y79343620D01*
X79716285Y79296000D01*
X79763904Y79248381D01*
X79811523Y79153143D01*
X79811523Y79057905D01*
X79763904Y78915048D01*
X79192476Y78343620D01*
X79811523Y78343620D01*
X80668666Y79010286D02*
X80668666Y78343620D01*
X80430571Y79391239D02*
X80192476Y78676953D01*
X80811523Y78676953D01*
%TO.C,Y1*%
X103917809Y44721810D02*
X103917809Y44245620D01*
X103584476Y45245620D02*
X103917809Y44721810D01*
X104251142Y45245620D01*
X105108285Y44245620D02*
X104536857Y44245620D01*
X104822571Y44245620D02*
X104822571Y45245620D01*
X104727333Y45102762D01*
X104632095Y45007524D01*
X104536857Y44959905D01*
%TO.C,D25*%
X70667714Y78343620D02*
X70667714Y79343620D01*
X70905809Y79343620D01*
X71048666Y79296000D01*
X71143904Y79200762D01*
X71191523Y79105524D01*
X71239142Y78915048D01*
X71239142Y78772191D01*
X71191523Y78581715D01*
X71143904Y78486477D01*
X71048666Y78391239D01*
X70905809Y78343620D01*
X70667714Y78343620D01*
X71620095Y79248381D02*
X71667714Y79296000D01*
X71762952Y79343620D01*
X72001047Y79343620D01*
X72096285Y79296000D01*
X72143904Y79248381D01*
X72191523Y79153143D01*
X72191523Y79057905D01*
X72143904Y78915048D01*
X71572476Y78343620D01*
X72191523Y78343620D01*
X73096285Y79343620D02*
X72620095Y79343620D01*
X72572476Y78867429D01*
X72620095Y78915048D01*
X72715333Y78962667D01*
X72953428Y78962667D01*
X73048666Y78915048D01*
X73096285Y78867429D01*
X73143904Y78772191D01*
X73143904Y78534096D01*
X73096285Y78438858D01*
X73048666Y78391239D01*
X72953428Y78343620D01*
X72715333Y78343620D01*
X72620095Y78391239D01*
X72572476Y78438858D01*
%TO.C,D22*%
X93527714Y78343620D02*
X93527714Y79343620D01*
X93765809Y79343620D01*
X93908666Y79296000D01*
X94003904Y79200762D01*
X94051523Y79105524D01*
X94099142Y78915048D01*
X94099142Y78772191D01*
X94051523Y78581715D01*
X94003904Y78486477D01*
X93908666Y78391239D01*
X93765809Y78343620D01*
X93527714Y78343620D01*
X94480095Y79248381D02*
X94527714Y79296000D01*
X94622952Y79343620D01*
X94861047Y79343620D01*
X94956285Y79296000D01*
X95003904Y79248381D01*
X95051523Y79153143D01*
X95051523Y79057905D01*
X95003904Y78915048D01*
X94432476Y78343620D01*
X95051523Y78343620D01*
X95432476Y79248381D02*
X95480095Y79296000D01*
X95575333Y79343620D01*
X95813428Y79343620D01*
X95908666Y79296000D01*
X95956285Y79248381D01*
X96003904Y79153143D01*
X96003904Y79057905D01*
X95956285Y78915048D01*
X95384857Y78343620D01*
X96003904Y78343620D01*
%TO.C,D10*%
X93527714Y9143620D02*
X93527714Y10143620D01*
X93765809Y10143620D01*
X93908666Y10096000D01*
X94003904Y10000762D01*
X94051523Y9905524D01*
X94099142Y9715048D01*
X94099142Y9572191D01*
X94051523Y9381715D01*
X94003904Y9286477D01*
X93908666Y9191239D01*
X93765809Y9143620D01*
X93527714Y9143620D01*
X95051523Y9143620D02*
X94480095Y9143620D01*
X94765809Y9143620D02*
X94765809Y10143620D01*
X94670571Y10000762D01*
X94575333Y9905524D01*
X94480095Y9857905D01*
X95670571Y10143620D02*
X95765809Y10143620D01*
X95861047Y10096000D01*
X95908666Y10048381D01*
X95956285Y9953143D01*
X96003904Y9762667D01*
X96003904Y9524572D01*
X95956285Y9334096D01*
X95908666Y9238858D01*
X95861047Y9191239D01*
X95765809Y9143620D01*
X95670571Y9143620D01*
X95575333Y9191239D01*
X95527714Y9238858D01*
X95480095Y9334096D01*
X95432476Y9524572D01*
X95432476Y9762667D01*
X95480095Y9953143D01*
X95527714Y10048381D01*
X95575333Y10096000D01*
X95670571Y10143620D01*
%TO.C,C8*%
X48005333Y21868858D02*
X47957714Y21821239D01*
X47814857Y21773620D01*
X47719619Y21773620D01*
X47576761Y21821239D01*
X47481523Y21916477D01*
X47433904Y22011715D01*
X47386285Y22202191D01*
X47386285Y22345048D01*
X47433904Y22535524D01*
X47481523Y22630762D01*
X47576761Y22726000D01*
X47719619Y22773620D01*
X47814857Y22773620D01*
X47957714Y22726000D01*
X48005333Y22678381D01*
X48576761Y22345048D02*
X48481523Y22392667D01*
X48433904Y22440286D01*
X48386285Y22535524D01*
X48386285Y22583143D01*
X48433904Y22678381D01*
X48481523Y22726000D01*
X48576761Y22773620D01*
X48767238Y22773620D01*
X48862476Y22726000D01*
X48910095Y22678381D01*
X48957714Y22583143D01*
X48957714Y22535524D01*
X48910095Y22440286D01*
X48862476Y22392667D01*
X48767238Y22345048D01*
X48576761Y22345048D01*
X48481523Y22297429D01*
X48433904Y22249810D01*
X48386285Y22154572D01*
X48386285Y21964096D01*
X48433904Y21868858D01*
X48481523Y21821239D01*
X48576761Y21773620D01*
X48767238Y21773620D01*
X48862476Y21821239D01*
X48910095Y21868858D01*
X48957714Y21964096D01*
X48957714Y22154572D01*
X48910095Y22249810D01*
X48862476Y22297429D01*
X48767238Y22345048D01*
%TO.C,R12*%
X82923142Y10723620D02*
X82589809Y11199810D01*
X82351714Y10723620D02*
X82351714Y11723620D01*
X82732666Y11723620D01*
X82827904Y11676000D01*
X82875523Y11628381D01*
X82923142Y11533143D01*
X82923142Y11390286D01*
X82875523Y11295048D01*
X82827904Y11247429D01*
X82732666Y11199810D01*
X82351714Y11199810D01*
X83875523Y10723620D02*
X83304095Y10723620D01*
X83589809Y10723620D02*
X83589809Y11723620D01*
X83494571Y11580762D01*
X83399333Y11485524D01*
X83304095Y11437905D01*
X84256476Y11628381D02*
X84304095Y11676000D01*
X84399333Y11723620D01*
X84637428Y11723620D01*
X84732666Y11676000D01*
X84780285Y11628381D01*
X84827904Y11533143D01*
X84827904Y11437905D01*
X84780285Y11295048D01*
X84208857Y10723620D01*
X84827904Y10723620D01*
%TO.C,D17*%
X129794380Y55681715D02*
X128794380Y55681715D01*
X128794380Y55919810D01*
X128842000Y56062667D01*
X128937238Y56157905D01*
X129032476Y56205524D01*
X129222952Y56253143D01*
X129365809Y56253143D01*
X129556285Y56205524D01*
X129651523Y56157905D01*
X129746761Y56062667D01*
X129794380Y55919810D01*
X129794380Y55681715D01*
X129794380Y57205524D02*
X129794380Y56634096D01*
X129794380Y56919810D02*
X128794380Y56919810D01*
X128937238Y56824572D01*
X129032476Y56729334D01*
X129080095Y56634096D01*
X128794380Y57538858D02*
X128794380Y58205524D01*
X129794380Y57776953D01*
%TO.C,D19*%
X129794380Y70921715D02*
X128794380Y70921715D01*
X128794380Y71159810D01*
X128842000Y71302667D01*
X128937238Y71397905D01*
X129032476Y71445524D01*
X129222952Y71493143D01*
X129365809Y71493143D01*
X129556285Y71445524D01*
X129651523Y71397905D01*
X129746761Y71302667D01*
X129794380Y71159810D01*
X129794380Y70921715D01*
X129794380Y72445524D02*
X129794380Y71874096D01*
X129794380Y72159810D02*
X128794380Y72159810D01*
X128937238Y72064572D01*
X129032476Y71969334D01*
X129080095Y71874096D01*
X129794380Y72921715D02*
X129794380Y73112191D01*
X129746761Y73207429D01*
X129699142Y73255048D01*
X129556285Y73350286D01*
X129365809Y73397905D01*
X128984857Y73397905D01*
X128889619Y73350286D01*
X128842000Y73302667D01*
X128794380Y73207429D01*
X128794380Y73016953D01*
X128842000Y72921715D01*
X128889619Y72874096D01*
X128984857Y72826477D01*
X129222952Y72826477D01*
X129318190Y72874096D01*
X129365809Y72921715D01*
X129413428Y73016953D01*
X129413428Y73207429D01*
X129365809Y73302667D01*
X129318190Y73350286D01*
X129222952Y73397905D01*
%TO.C,D8*%
X78763904Y9143620D02*
X78763904Y10143620D01*
X79002000Y10143620D01*
X79144857Y10096000D01*
X79240095Y10000762D01*
X79287714Y9905524D01*
X79335333Y9715048D01*
X79335333Y9572191D01*
X79287714Y9381715D01*
X79240095Y9286477D01*
X79144857Y9191239D01*
X79002000Y9143620D01*
X78763904Y9143620D01*
X79906761Y9715048D02*
X79811523Y9762667D01*
X79763904Y9810286D01*
X79716285Y9905524D01*
X79716285Y9953143D01*
X79763904Y10048381D01*
X79811523Y10096000D01*
X79906761Y10143620D01*
X80097238Y10143620D01*
X80192476Y10096000D01*
X80240095Y10048381D01*
X80287714Y9953143D01*
X80287714Y9905524D01*
X80240095Y9810286D01*
X80192476Y9762667D01*
X80097238Y9715048D01*
X79906761Y9715048D01*
X79811523Y9667429D01*
X79763904Y9619810D01*
X79716285Y9524572D01*
X79716285Y9334096D01*
X79763904Y9238858D01*
X79811523Y9191239D01*
X79906761Y9143620D01*
X80097238Y9143620D01*
X80192476Y9191239D01*
X80240095Y9238858D01*
X80287714Y9334096D01*
X80287714Y9524572D01*
X80240095Y9619810D01*
X80192476Y9667429D01*
X80097238Y9715048D01*
%TO.C,D26*%
X63047714Y78343620D02*
X63047714Y79343620D01*
X63285809Y79343620D01*
X63428666Y79296000D01*
X63523904Y79200762D01*
X63571523Y79105524D01*
X63619142Y78915048D01*
X63619142Y78772191D01*
X63571523Y78581715D01*
X63523904Y78486477D01*
X63428666Y78391239D01*
X63285809Y78343620D01*
X63047714Y78343620D01*
X64000095Y79248381D02*
X64047714Y79296000D01*
X64142952Y79343620D01*
X64381047Y79343620D01*
X64476285Y79296000D01*
X64523904Y79248381D01*
X64571523Y79153143D01*
X64571523Y79057905D01*
X64523904Y78915048D01*
X63952476Y78343620D01*
X64571523Y78343620D01*
X65428666Y79343620D02*
X65238190Y79343620D01*
X65142952Y79296000D01*
X65095333Y79248381D01*
X65000095Y79105524D01*
X64952476Y78915048D01*
X64952476Y78534096D01*
X65000095Y78438858D01*
X65047714Y78391239D01*
X65142952Y78343620D01*
X65333428Y78343620D01*
X65428666Y78391239D01*
X65476285Y78438858D01*
X65523904Y78534096D01*
X65523904Y78772191D01*
X65476285Y78867429D01*
X65428666Y78915048D01*
X65333428Y78962667D01*
X65142952Y78962667D01*
X65047714Y78915048D01*
X65000095Y78867429D01*
X64952476Y78772191D01*
%TO.C,D23*%
X85907714Y78343620D02*
X85907714Y79343620D01*
X86145809Y79343620D01*
X86288666Y79296000D01*
X86383904Y79200762D01*
X86431523Y79105524D01*
X86479142Y78915048D01*
X86479142Y78772191D01*
X86431523Y78581715D01*
X86383904Y78486477D01*
X86288666Y78391239D01*
X86145809Y78343620D01*
X85907714Y78343620D01*
X86860095Y79248381D02*
X86907714Y79296000D01*
X87002952Y79343620D01*
X87241047Y79343620D01*
X87336285Y79296000D01*
X87383904Y79248381D01*
X87431523Y79153143D01*
X87431523Y79057905D01*
X87383904Y78915048D01*
X86812476Y78343620D01*
X87431523Y78343620D01*
X87764857Y79343620D02*
X88383904Y79343620D01*
X88050571Y78962667D01*
X88193428Y78962667D01*
X88288666Y78915048D01*
X88336285Y78867429D01*
X88383904Y78772191D01*
X88383904Y78534096D01*
X88336285Y78438858D01*
X88288666Y78391239D01*
X88193428Y78343620D01*
X87907714Y78343620D01*
X87812476Y78391239D01*
X87764857Y78438858D01*
%TO.C,U1*%
X120650095Y63573620D02*
X120650095Y62764096D01*
X120697714Y62668858D01*
X120745333Y62621239D01*
X120840571Y62573620D01*
X121031047Y62573620D01*
X121126285Y62621239D01*
X121173904Y62668858D01*
X121221523Y62764096D01*
X121221523Y63573620D01*
X122221523Y62573620D02*
X121650095Y62573620D01*
X121935809Y62573620D02*
X121935809Y63573620D01*
X121840571Y63430762D01*
X121745333Y63335524D01*
X121650095Y63287905D01*
%TO.C,D21*%
X101147714Y78343620D02*
X101147714Y79343620D01*
X101385809Y79343620D01*
X101528666Y79296000D01*
X101623904Y79200762D01*
X101671523Y79105524D01*
X101719142Y78915048D01*
X101719142Y78772191D01*
X101671523Y78581715D01*
X101623904Y78486477D01*
X101528666Y78391239D01*
X101385809Y78343620D01*
X101147714Y78343620D01*
X102100095Y79248381D02*
X102147714Y79296000D01*
X102242952Y79343620D01*
X102481047Y79343620D01*
X102576285Y79296000D01*
X102623904Y79248381D01*
X102671523Y79153143D01*
X102671523Y79057905D01*
X102623904Y78915048D01*
X102052476Y78343620D01*
X102671523Y78343620D01*
X103623904Y78343620D02*
X103052476Y78343620D01*
X103338190Y78343620D02*
X103338190Y79343620D01*
X103242952Y79200762D01*
X103147714Y79105524D01*
X103052476Y79057905D01*
%TO.C,BT1*%
X12512599Y28447412D02*
X12655456Y28399793D01*
X12703075Y28352174D01*
X12750694Y28256936D01*
X12750694Y28114079D01*
X12703075Y28018841D01*
X12655456Y27971222D01*
X12560218Y27923603D01*
X12179266Y27923603D01*
X12179266Y28923603D01*
X12512599Y28923603D01*
X12607837Y28875983D01*
X12655456Y28828364D01*
X12703075Y28733126D01*
X12703075Y28637888D01*
X12655456Y28542650D01*
X12607837Y28495031D01*
X12512599Y28447412D01*
X12179266Y28447412D01*
X13036409Y28923603D02*
X13607837Y28923603D01*
X13322123Y27923603D02*
X13322123Y28923603D01*
X14464980Y27923603D02*
X13893552Y27923603D01*
X14179266Y27923603D02*
X14179266Y28923603D01*
X14084028Y28780745D01*
X13988790Y28685507D01*
X13893552Y28637888D01*
X16726885Y23768841D02*
X17869742Y23768841D01*
X17298314Y23197412D02*
X17298314Y24340269D01*
%TO.C,D2*%
X33043904Y9143620D02*
X33043904Y10143620D01*
X33282000Y10143620D01*
X33424857Y10096000D01*
X33520095Y10000762D01*
X33567714Y9905524D01*
X33615333Y9715048D01*
X33615333Y9572191D01*
X33567714Y9381715D01*
X33520095Y9286477D01*
X33424857Y9191239D01*
X33282000Y9143620D01*
X33043904Y9143620D01*
X33996285Y10048381D02*
X34043904Y10096000D01*
X34139142Y10143620D01*
X34377238Y10143620D01*
X34472476Y10096000D01*
X34520095Y10048381D01*
X34567714Y9953143D01*
X34567714Y9857905D01*
X34520095Y9715048D01*
X33948666Y9143620D01*
X34567714Y9143620D01*
%TO.C,SW5*%
X95948666Y64891239D02*
X96091523Y64843620D01*
X96329619Y64843620D01*
X96424857Y64891239D01*
X96472476Y64938858D01*
X96520095Y65034096D01*
X96520095Y65129334D01*
X96472476Y65224572D01*
X96424857Y65272191D01*
X96329619Y65319810D01*
X96139142Y65367429D01*
X96043904Y65415048D01*
X95996285Y65462667D01*
X95948666Y65557905D01*
X95948666Y65653143D01*
X95996285Y65748381D01*
X96043904Y65796000D01*
X96139142Y65843620D01*
X96377238Y65843620D01*
X96520095Y65796000D01*
X96853428Y65843620D02*
X97091523Y64843620D01*
X97282000Y65557905D01*
X97472476Y64843620D01*
X97710571Y65843620D01*
X98567714Y65843620D02*
X98091523Y65843620D01*
X98043904Y65367429D01*
X98091523Y65415048D01*
X98186761Y65462667D01*
X98424857Y65462667D01*
X98520095Y65415048D01*
X98567714Y65367429D01*
X98615333Y65272191D01*
X98615333Y65034096D01*
X98567714Y64938858D01*
X98520095Y64891239D01*
X98424857Y64843620D01*
X98186761Y64843620D01*
X98091523Y64891239D01*
X98043904Y64938858D01*
%TO.C,D15*%
X129738380Y37647715D02*
X128738380Y37647715D01*
X128738380Y37885810D01*
X128786000Y38028667D01*
X128881238Y38123905D01*
X128976476Y38171524D01*
X129166952Y38219143D01*
X129309809Y38219143D01*
X129500285Y38171524D01*
X129595523Y38123905D01*
X129690761Y38028667D01*
X129738380Y37885810D01*
X129738380Y37647715D01*
X129738380Y39171524D02*
X129738380Y38600096D01*
X129738380Y38885810D02*
X128738380Y38885810D01*
X128881238Y38790572D01*
X128976476Y38695334D01*
X129024095Y38600096D01*
X128738380Y40076286D02*
X128738380Y39600096D01*
X129214571Y39552477D01*
X129166952Y39600096D01*
X129119333Y39695334D01*
X129119333Y39933429D01*
X129166952Y40028667D01*
X129214571Y40076286D01*
X129309809Y40123905D01*
X129547904Y40123905D01*
X129643142Y40076286D01*
X129690761Y40028667D01*
X129738380Y39933429D01*
X129738380Y39695334D01*
X129690761Y39600096D01*
X129643142Y39552477D01*
%TO.C,D36*%
X9794380Y42981715D02*
X8794380Y42981715D01*
X8794380Y43219810D01*
X8842000Y43362667D01*
X8937238Y43457905D01*
X9032476Y43505524D01*
X9222952Y43553143D01*
X9365809Y43553143D01*
X9556285Y43505524D01*
X9651523Y43457905D01*
X9746761Y43362667D01*
X9794380Y43219810D01*
X9794380Y42981715D01*
X8794380Y43886477D02*
X8794380Y44505524D01*
X9175333Y44172191D01*
X9175333Y44315048D01*
X9222952Y44410286D01*
X9270571Y44457905D01*
X9365809Y44505524D01*
X9603904Y44505524D01*
X9699142Y44457905D01*
X9746761Y44410286D01*
X9794380Y44315048D01*
X9794380Y44029334D01*
X9746761Y43934096D01*
X9699142Y43886477D01*
X8794380Y45362667D02*
X8794380Y45172191D01*
X8842000Y45076953D01*
X8889619Y45029334D01*
X9032476Y44934096D01*
X9222952Y44886477D01*
X9603904Y44886477D01*
X9699142Y44934096D01*
X9746761Y44981715D01*
X9794380Y45076953D01*
X9794380Y45267429D01*
X9746761Y45362667D01*
X9699142Y45410286D01*
X9603904Y45457905D01*
X9365809Y45457905D01*
X9270571Y45410286D01*
X9222952Y45362667D01*
X9175333Y45267429D01*
X9175333Y45076953D01*
X9222952Y44981715D01*
X9270571Y44934096D01*
X9365809Y44886477D01*
%TO.C,D5*%
X55903904Y9143620D02*
X55903904Y10143620D01*
X56142000Y10143620D01*
X56284857Y10096000D01*
X56380095Y10000762D01*
X56427714Y9905524D01*
X56475333Y9715048D01*
X56475333Y9572191D01*
X56427714Y9381715D01*
X56380095Y9286477D01*
X56284857Y9191239D01*
X56142000Y9143620D01*
X55903904Y9143620D01*
X57380095Y10143620D02*
X56903904Y10143620D01*
X56856285Y9667429D01*
X56903904Y9715048D01*
X56999142Y9762667D01*
X57237238Y9762667D01*
X57332476Y9715048D01*
X57380095Y9667429D01*
X57427714Y9572191D01*
X57427714Y9334096D01*
X57380095Y9238858D01*
X57332476Y9191239D01*
X57237238Y9143620D01*
X56999142Y9143620D01*
X56903904Y9191239D01*
X56856285Y9238858D01*
%TO.C,D3*%
X40663904Y9143620D02*
X40663904Y10143620D01*
X40902000Y10143620D01*
X41044857Y10096000D01*
X41140095Y10000762D01*
X41187714Y9905524D01*
X41235333Y9715048D01*
X41235333Y9572191D01*
X41187714Y9381715D01*
X41140095Y9286477D01*
X41044857Y9191239D01*
X40902000Y9143620D01*
X40663904Y9143620D01*
X41568666Y10143620D02*
X42187714Y10143620D01*
X41854380Y9762667D01*
X41997238Y9762667D01*
X42092476Y9715048D01*
X42140095Y9667429D01*
X42187714Y9572191D01*
X42187714Y9334096D01*
X42140095Y9238858D01*
X42092476Y9191239D01*
X41997238Y9143620D01*
X41711523Y9143620D01*
X41616285Y9191239D01*
X41568666Y9238858D01*
%TO.C,D37*%
X9794380Y35361715D02*
X8794380Y35361715D01*
X8794380Y35599810D01*
X8842000Y35742667D01*
X8937238Y35837905D01*
X9032476Y35885524D01*
X9222952Y35933143D01*
X9365809Y35933143D01*
X9556285Y35885524D01*
X9651523Y35837905D01*
X9746761Y35742667D01*
X9794380Y35599810D01*
X9794380Y35361715D01*
X8794380Y36266477D02*
X8794380Y36885524D01*
X9175333Y36552191D01*
X9175333Y36695048D01*
X9222952Y36790286D01*
X9270571Y36837905D01*
X9365809Y36885524D01*
X9603904Y36885524D01*
X9699142Y36837905D01*
X9746761Y36790286D01*
X9794380Y36695048D01*
X9794380Y36409334D01*
X9746761Y36314096D01*
X9699142Y36266477D01*
X8794380Y37218858D02*
X8794380Y37885524D01*
X9794380Y37456953D01*
%TO.C,J2*%
X30908666Y53589620D02*
X30908666Y52875334D01*
X30861047Y52732477D01*
X30765809Y52637239D01*
X30622952Y52589620D01*
X30527714Y52589620D01*
X31337238Y53494381D02*
X31384857Y53542000D01*
X31480095Y53589620D01*
X31718190Y53589620D01*
X31813428Y53542000D01*
X31861047Y53494381D01*
X31908666Y53399143D01*
X31908666Y53303905D01*
X31861047Y53161048D01*
X31289619Y52589620D01*
X31908666Y52589620D01*
%TO.C,D1*%
X25423904Y9143620D02*
X25423904Y10143620D01*
X25662000Y10143620D01*
X25804857Y10096000D01*
X25900095Y10000762D01*
X25947714Y9905524D01*
X25995333Y9715048D01*
X25995333Y9572191D01*
X25947714Y9381715D01*
X25900095Y9286477D01*
X25804857Y9191239D01*
X25662000Y9143620D01*
X25423904Y9143620D01*
X26947714Y9143620D02*
X26376285Y9143620D01*
X26662000Y9143620D02*
X26662000Y10143620D01*
X26566761Y10000762D01*
X26471523Y9905524D01*
X26376285Y9857905D01*
%TO.C,Y2*%
X15525809Y63949810D02*
X15525809Y63473620D01*
X15192476Y64473620D02*
X15525809Y63949810D01*
X15859142Y64473620D01*
X16144857Y64378381D02*
X16192476Y64426000D01*
X16287714Y64473620D01*
X16525809Y64473620D01*
X16621047Y64426000D01*
X16668666Y64378381D01*
X16716285Y64283143D01*
X16716285Y64187905D01*
X16668666Y64045048D01*
X16097238Y63473620D01*
X16716285Y63473620D01*
%TO.C,R5*%
X72731333Y32567620D02*
X72398000Y33043810D01*
X72159904Y32567620D02*
X72159904Y33567620D01*
X72540857Y33567620D01*
X72636095Y33520000D01*
X72683714Y33472381D01*
X72731333Y33377143D01*
X72731333Y33234286D01*
X72683714Y33139048D01*
X72636095Y33091429D01*
X72540857Y33043810D01*
X72159904Y33043810D01*
X73636095Y33567620D02*
X73159904Y33567620D01*
X73112285Y33091429D01*
X73159904Y33139048D01*
X73255142Y33186667D01*
X73493238Y33186667D01*
X73588476Y33139048D01*
X73636095Y33091429D01*
X73683714Y32996191D01*
X73683714Y32758096D01*
X73636095Y32662858D01*
X73588476Y32615239D01*
X73493238Y32567620D01*
X73255142Y32567620D01*
X73159904Y32615239D01*
X73112285Y32662858D01*
%TO.C,SW2*%
X62484666Y13819239D02*
X62627523Y13771620D01*
X62865619Y13771620D01*
X62960857Y13819239D01*
X63008476Y13866858D01*
X63056095Y13962096D01*
X63056095Y14057334D01*
X63008476Y14152572D01*
X62960857Y14200191D01*
X62865619Y14247810D01*
X62675142Y14295429D01*
X62579904Y14343048D01*
X62532285Y14390667D01*
X62484666Y14485905D01*
X62484666Y14581143D01*
X62532285Y14676381D01*
X62579904Y14724000D01*
X62675142Y14771620D01*
X62913238Y14771620D01*
X63056095Y14724000D01*
X63389428Y14771620D02*
X63627523Y13771620D01*
X63818000Y14485905D01*
X64008476Y13771620D01*
X64246571Y14771620D01*
X64579904Y14676381D02*
X64627523Y14724000D01*
X64722761Y14771620D01*
X64960857Y14771620D01*
X65056095Y14724000D01*
X65103714Y14676381D01*
X65151333Y14581143D01*
X65151333Y14485905D01*
X65103714Y14343048D01*
X64532285Y13771620D01*
X65151333Y13771620D01*
%TO.C,J3*%
X121078666Y67813620D02*
X121078666Y67099334D01*
X121031047Y66956477D01*
X120935809Y66861239D01*
X120792952Y66813620D01*
X120697714Y66813620D01*
X121459619Y67813620D02*
X122078666Y67813620D01*
X121745333Y67432667D01*
X121888190Y67432667D01*
X121983428Y67385048D01*
X122031047Y67337429D01*
X122078666Y67242191D01*
X122078666Y67004096D01*
X122031047Y66908858D01*
X121983428Y66861239D01*
X121888190Y66813620D01*
X121602476Y66813620D01*
X121507238Y66861239D01*
X121459619Y66908858D01*
%TO.C,D12*%
X108767714Y9143620D02*
X108767714Y10143620D01*
X109005809Y10143620D01*
X109148666Y10096000D01*
X109243904Y10000762D01*
X109291523Y9905524D01*
X109339142Y9715048D01*
X109339142Y9572191D01*
X109291523Y9381715D01*
X109243904Y9286477D01*
X109148666Y9191239D01*
X109005809Y9143620D01*
X108767714Y9143620D01*
X110291523Y9143620D02*
X109720095Y9143620D01*
X110005809Y9143620D02*
X110005809Y10143620D01*
X109910571Y10000762D01*
X109815333Y9905524D01*
X109720095Y9857905D01*
X110672476Y10048381D02*
X110720095Y10096000D01*
X110815333Y10143620D01*
X111053428Y10143620D01*
X111148666Y10096000D01*
X111196285Y10048381D01*
X111243904Y9953143D01*
X111243904Y9857905D01*
X111196285Y9715048D01*
X110624857Y9143620D01*
X111243904Y9143620D01*
%TO.C,D29*%
X40187714Y78343620D02*
X40187714Y79343620D01*
X40425809Y79343620D01*
X40568666Y79296000D01*
X40663904Y79200762D01*
X40711523Y79105524D01*
X40759142Y78915048D01*
X40759142Y78772191D01*
X40711523Y78581715D01*
X40663904Y78486477D01*
X40568666Y78391239D01*
X40425809Y78343620D01*
X40187714Y78343620D01*
X41140095Y79248381D02*
X41187714Y79296000D01*
X41282952Y79343620D01*
X41521047Y79343620D01*
X41616285Y79296000D01*
X41663904Y79248381D01*
X41711523Y79153143D01*
X41711523Y79057905D01*
X41663904Y78915048D01*
X41092476Y78343620D01*
X41711523Y78343620D01*
X42187714Y78343620D02*
X42378190Y78343620D01*
X42473428Y78391239D01*
X42521047Y78438858D01*
X42616285Y78581715D01*
X42663904Y78772191D01*
X42663904Y79153143D01*
X42616285Y79248381D01*
X42568666Y79296000D01*
X42473428Y79343620D01*
X42282952Y79343620D01*
X42187714Y79296000D01*
X42140095Y79248381D01*
X42092476Y79153143D01*
X42092476Y78915048D01*
X42140095Y78819810D01*
X42187714Y78772191D01*
X42282952Y78724572D01*
X42473428Y78724572D01*
X42568666Y78772191D01*
X42616285Y78819810D01*
X42663904Y78915048D01*
%TO.C,D4*%
X48283904Y9143620D02*
X48283904Y10143620D01*
X48522000Y10143620D01*
X48664857Y10096000D01*
X48760095Y10000762D01*
X48807714Y9905524D01*
X48855333Y9715048D01*
X48855333Y9572191D01*
X48807714Y9381715D01*
X48760095Y9286477D01*
X48664857Y9191239D01*
X48522000Y9143620D01*
X48283904Y9143620D01*
X49712476Y9810286D02*
X49712476Y9143620D01*
X49474380Y10191239D02*
X49236285Y9476953D01*
X49855333Y9476953D01*
%TO.C,D39*%
X9794380Y20121715D02*
X8794380Y20121715D01*
X8794380Y20359810D01*
X8842000Y20502667D01*
X8937238Y20597905D01*
X9032476Y20645524D01*
X9222952Y20693143D01*
X9365809Y20693143D01*
X9556285Y20645524D01*
X9651523Y20597905D01*
X9746761Y20502667D01*
X9794380Y20359810D01*
X9794380Y20121715D01*
X8794380Y21026477D02*
X8794380Y21645524D01*
X9175333Y21312191D01*
X9175333Y21455048D01*
X9222952Y21550286D01*
X9270571Y21597905D01*
X9365809Y21645524D01*
X9603904Y21645524D01*
X9699142Y21597905D01*
X9746761Y21550286D01*
X9794380Y21455048D01*
X9794380Y21169334D01*
X9746761Y21074096D01*
X9699142Y21026477D01*
X9794380Y22121715D02*
X9794380Y22312191D01*
X9746761Y22407429D01*
X9699142Y22455048D01*
X9556285Y22550286D01*
X9365809Y22597905D01*
X8984857Y22597905D01*
X8889619Y22550286D01*
X8842000Y22502667D01*
X8794380Y22407429D01*
X8794380Y22216953D01*
X8842000Y22121715D01*
X8889619Y22074096D01*
X8984857Y22026477D01*
X9222952Y22026477D01*
X9318190Y22074096D01*
X9365809Y22121715D01*
X9413428Y22216953D01*
X9413428Y22407429D01*
X9365809Y22502667D01*
X9318190Y22550286D01*
X9222952Y22597905D01*
%TO.C,D40*%
X9794380Y12501715D02*
X8794380Y12501715D01*
X8794380Y12739810D01*
X8842000Y12882667D01*
X8937238Y12977905D01*
X9032476Y13025524D01*
X9222952Y13073143D01*
X9365809Y13073143D01*
X9556285Y13025524D01*
X9651523Y12977905D01*
X9746761Y12882667D01*
X9794380Y12739810D01*
X9794380Y12501715D01*
X9127714Y13930286D02*
X9794380Y13930286D01*
X8746761Y13692191D02*
X9461047Y13454096D01*
X9461047Y14073143D01*
X8794380Y14644572D02*
X8794380Y14739810D01*
X8842000Y14835048D01*
X8889619Y14882667D01*
X8984857Y14930286D01*
X9175333Y14977905D01*
X9413428Y14977905D01*
X9603904Y14930286D01*
X9699142Y14882667D01*
X9746761Y14835048D01*
X9794380Y14739810D01*
X9794380Y14644572D01*
X9746761Y14549334D01*
X9699142Y14501715D01*
X9603904Y14454096D01*
X9413428Y14406477D01*
X9175333Y14406477D01*
X8984857Y14454096D01*
X8889619Y14501715D01*
X8842000Y14549334D01*
X8794380Y14644572D01*
%TO.C,SW4*%
X85216666Y13819239D02*
X85359523Y13771620D01*
X85597619Y13771620D01*
X85692857Y13819239D01*
X85740476Y13866858D01*
X85788095Y13962096D01*
X85788095Y14057334D01*
X85740476Y14152572D01*
X85692857Y14200191D01*
X85597619Y14247810D01*
X85407142Y14295429D01*
X85311904Y14343048D01*
X85264285Y14390667D01*
X85216666Y14485905D01*
X85216666Y14581143D01*
X85264285Y14676381D01*
X85311904Y14724000D01*
X85407142Y14771620D01*
X85645238Y14771620D01*
X85788095Y14724000D01*
X86121428Y14771620D02*
X86359523Y13771620D01*
X86550000Y14485905D01*
X86740476Y13771620D01*
X86978571Y14771620D01*
X87788095Y14438286D02*
X87788095Y13771620D01*
X87550000Y14819239D02*
X87311904Y14104953D01*
X87930952Y14104953D01*
%TO.C,R10*%
X59491142Y10723620D02*
X59157809Y11199810D01*
X58919714Y10723620D02*
X58919714Y11723620D01*
X59300666Y11723620D01*
X59395904Y11676000D01*
X59443523Y11628381D01*
X59491142Y11533143D01*
X59491142Y11390286D01*
X59443523Y11295048D01*
X59395904Y11247429D01*
X59300666Y11199810D01*
X58919714Y11199810D01*
X60443523Y10723620D02*
X59872095Y10723620D01*
X60157809Y10723620D02*
X60157809Y11723620D01*
X60062571Y11580762D01*
X59967333Y11485524D01*
X59872095Y11437905D01*
X61062571Y11723620D02*
X61157809Y11723620D01*
X61253047Y11676000D01*
X61300666Y11628381D01*
X61348285Y11533143D01*
X61395904Y11342667D01*
X61395904Y11104572D01*
X61348285Y10914096D01*
X61300666Y10818858D01*
X61253047Y10771239D01*
X61157809Y10723620D01*
X61062571Y10723620D01*
X60967333Y10771239D01*
X60919714Y10818858D01*
X60872095Y10914096D01*
X60824476Y11104572D01*
X60824476Y11342667D01*
X60872095Y11533143D01*
X60919714Y11628381D01*
X60967333Y11676000D01*
X61062571Y11723620D01*
D11*
%TO.C,D18*%
X135592000Y60866000D02*
X135592000Y68166000D01*
X135592000Y68166000D02*
X134442000Y68166000D01*
X130092000Y60866000D02*
X130092000Y68166000D01*
%TO.C,D28*%
X52672000Y79546000D02*
X45372000Y79546000D01*
X52672000Y85046000D02*
X45372000Y85046000D01*
X45372000Y85046000D02*
X45372000Y83896000D01*
%TO.C,SW1*%
X49678000Y13096000D02*
X55478000Y13096000D01*
X49478000Y15046000D02*
X49478000Y17646000D01*
X49578000Y19596000D02*
X55578000Y19596000D01*
X57678000Y14046000D02*
X57678000Y13046000D01*
X57678000Y13046000D02*
X56678000Y13046000D01*
X55678000Y15046000D02*
X55678000Y17646000D01*
%TO.C,D7*%
X68232000Y8846000D02*
X75532000Y8846000D01*
X68232000Y3346000D02*
X75532000Y3346000D01*
X75532000Y3346000D02*
X75532000Y4496000D01*
%TO.C,U5*%
X61732000Y59956000D02*
X71872000Y59956000D01*
X71872000Y59956000D02*
X71872000Y57356000D01*
X71872000Y57356000D02*
X61732000Y57356000D01*
X61732000Y57356000D02*
X61732000Y59956000D01*
X44052000Y77256000D02*
X89552000Y77256000D01*
X89552000Y77256000D02*
X89552000Y56856000D01*
X89552000Y56856000D02*
X44052000Y56856000D01*
X44052000Y56856000D02*
X44052000Y77256000D01*
X87802000Y67056000D02*
G75*
G03*
X87802000Y67056000I-8000000J0D01*
G01*
X61802000Y67056000D02*
G75*
G03*
X61802000Y67056000I-8000000J0D01*
G01*
%TO.C,D16*%
X135592000Y52926000D02*
X134442000Y52926000D01*
X130092000Y45626000D02*
X130092000Y52926000D01*
X135592000Y45626000D02*
X135592000Y52926000D01*
%TO.C,D38*%
X3092000Y32606000D02*
X3092000Y25306000D01*
X3092000Y25306000D02*
X4242000Y25306000D01*
X8592000Y32606000D02*
X8592000Y25306000D01*
%TO.C,D9*%
X90772000Y3346000D02*
X90772000Y4496000D01*
X83472000Y8846000D02*
X90772000Y8846000D01*
X83472000Y3346000D02*
X90772000Y3346000D01*
D10*
%TO.C,DS1*%
X94567000Y53821000D02*
X44117000Y53821000D01*
X94567000Y34571000D02*
X94567000Y53821000D01*
X44117000Y34571000D02*
X44117000Y53821000D01*
X94567000Y34571000D02*
X44117000Y34571000D01*
D12*
X61847000Y33971000D02*
G75*
G03*
X61847000Y33971000I-125000J0D01*
G01*
D11*
%TO.C,D27*%
X60292000Y85046000D02*
X52992000Y85046000D01*
X60292000Y79546000D02*
X52992000Y79546000D01*
X52992000Y85046000D02*
X52992000Y83896000D01*
%TO.C,D13*%
X135592000Y22766000D02*
X135592000Y30066000D01*
X130092000Y22766000D02*
X130092000Y30066000D01*
X135592000Y30066000D02*
X134442000Y30066000D01*
%TO.C,D11*%
X98712000Y3346000D02*
X106012000Y3346000D01*
X106012000Y3346000D02*
X106012000Y4496000D01*
X98712000Y8846000D02*
X106012000Y8846000D01*
%TO.C,D6*%
X60597920Y3346000D02*
X67897920Y3346000D01*
X60597920Y8846000D02*
X67897920Y8846000D01*
X67897920Y3346000D02*
X67897920Y4496000D01*
%TO.C,D35*%
X8592000Y55466000D02*
X8592000Y48166000D01*
X3092000Y55466000D02*
X3092000Y48166000D01*
X3092000Y48166000D02*
X4242000Y48166000D01*
%TO.C,D14*%
X135592000Y37686000D02*
X134442000Y37686000D01*
X130092000Y30386000D02*
X130092000Y37686000D01*
X135592000Y30386000D02*
X135592000Y37686000D01*
%TO.C,D33*%
X8592000Y70706000D02*
X8592000Y63406000D01*
X3092000Y63406000D02*
X4242000Y63406000D01*
X3092000Y70706000D02*
X3092000Y63406000D01*
%TO.C,D31*%
X22512000Y85046000D02*
X22512000Y83896000D01*
X29812000Y85046000D02*
X22512000Y85046000D01*
X29812000Y79546000D02*
X22512000Y79546000D01*
%TO.C,D34*%
X8592000Y63086000D02*
X8592000Y55786000D01*
X3092000Y63086000D02*
X3092000Y55786000D01*
X3092000Y55786000D02*
X4242000Y55786000D01*
%TO.C,U2*%
X108352000Y25886000D02*
X108352000Y24386000D01*
X101722000Y24386000D02*
X101722000Y21556000D01*
X101452000Y24386000D02*
X101722000Y24386000D01*
X108352000Y24386000D02*
X108082000Y24386000D01*
X108082000Y24386000D02*
X108082000Y23286000D01*
X101452000Y25886000D02*
X101452000Y24386000D01*
%TO.C,D32*%
X8592000Y78326000D02*
X8592000Y71026000D01*
X3092000Y78326000D02*
X3092000Y71026000D01*
X3092000Y71026000D02*
X4242000Y71026000D01*
%TO.C,BZ1*%
X33364000Y45236000D02*
G75*
G03*
X33364000Y48235999I-6400000J1500000D01*
G01*
X33194000Y46736000D02*
G75*
G03*
X33194000Y46736000I-6230000J0D01*
G01*
%TO.C,D50*%
X127198000Y11191000D02*
X127198000Y13876000D01*
X125278000Y13876000D02*
X125278000Y11191000D01*
X125278000Y11191000D02*
X127198000Y11191000D01*
%TO.C,D30*%
X37432000Y79546000D02*
X30132000Y79546000D01*
X37432000Y85046000D02*
X30132000Y85046000D01*
X30132000Y85046000D02*
X30132000Y83896000D01*
%TO.C,SW3*%
X72374000Y19596000D02*
X78374000Y19596000D01*
X72474000Y13096000D02*
X78274000Y13096000D01*
X80474000Y14046000D02*
X80474000Y13046000D01*
X72274000Y15046000D02*
X72274000Y17646000D01*
X78474000Y15046000D02*
X78474000Y17646000D01*
X80474000Y13046000D02*
X79474000Y13046000D01*
%TO.C,D20*%
X113632000Y79546000D02*
X106332000Y79546000D01*
X113632000Y85046000D02*
X106332000Y85046000D01*
X106332000Y85046000D02*
X106332000Y83896000D01*
%TO.C,U3*%
X54037000Y23776000D02*
X84637000Y23776000D01*
X54037000Y25426000D02*
X54037000Y23776000D01*
X54037000Y29076000D02*
X54037000Y27426000D01*
X84637000Y23776000D02*
X84637000Y29076000D01*
X84637000Y29076000D02*
X54037000Y29076000D01*
X54037000Y25426000D02*
G75*
G03*
X54037000Y27426000I0J1000000D01*
G01*
%TO.C,U4*%
X13412000Y68606000D02*
X13412000Y66956000D01*
X23692000Y66956000D02*
X23692000Y72256000D01*
X23692000Y72256000D02*
X13412000Y72256000D01*
X13412000Y72256000D02*
X13412000Y70606000D01*
X13412000Y66956000D02*
X23692000Y66956000D01*
X13412000Y68606000D02*
G75*
G03*
X13412000Y70606000I0J1000000D01*
G01*
%TO.C,D24*%
X83152000Y85046000D02*
X75852000Y85046000D01*
X83152000Y79546000D02*
X75852000Y79546000D01*
X75852000Y85046000D02*
X75852000Y83896000D01*
%TO.C,Y1*%
X110294000Y43698000D02*
X97694000Y43698000D01*
X97694000Y38598000D02*
X110294000Y38598000D01*
X97694000Y43698000D02*
X97694000Y38598000D01*
%TO.C,D25*%
X68232000Y85046000D02*
X68232000Y83896000D01*
X75532000Y85046000D02*
X68232000Y85046000D01*
X75532000Y79546000D02*
X68232000Y79546000D01*
%TO.C,D22*%
X98392000Y79546000D02*
X91092000Y79546000D01*
X91092000Y85046000D02*
X91092000Y83896000D01*
X98392000Y85046000D02*
X91092000Y85046000D01*
%TO.C,D10*%
X98392000Y3346000D02*
X98392000Y4496000D01*
X91092000Y8846000D02*
X98392000Y8846000D01*
X91092000Y3346000D02*
X98392000Y3346000D01*
%TO.C,D17*%
X135592000Y53246000D02*
X135592000Y60546000D01*
X130092000Y53246000D02*
X130092000Y60546000D01*
X135592000Y60546000D02*
X134442000Y60546000D01*
%TO.C,D19*%
X130092000Y68486000D02*
X130092000Y75786000D01*
X135592000Y68486000D02*
X135592000Y75786000D01*
X135592000Y75786000D02*
X134442000Y75786000D01*
%TO.C,D8*%
X75852000Y8846000D02*
X83152000Y8846000D01*
X75852000Y3346000D02*
X83152000Y3346000D01*
X83152000Y3346000D02*
X83152000Y4496000D01*
%TO.C,D26*%
X67912000Y85046000D02*
X60612000Y85046000D01*
X60612000Y85046000D02*
X60612000Y83896000D01*
X67912000Y79546000D02*
X60612000Y79546000D01*
%TO.C,D23*%
X90772000Y79546000D02*
X83472000Y79546000D01*
X83472000Y85046000D02*
X83472000Y83896000D01*
X90772000Y85046000D02*
X83472000Y85046000D01*
%TO.C,U1*%
X124062000Y26346000D02*
X124062000Y62026000D01*
X118762000Y62026000D02*
X118762000Y26346000D01*
X118762000Y26346000D02*
X124062000Y26346000D01*
X120412000Y62026000D02*
X118762000Y62026000D01*
X124062000Y62026000D02*
X122412000Y62026000D01*
X120412000Y62026000D02*
G75*
G03*
X122412000Y62026000I1000000J0D01*
G01*
%TO.C,D21*%
X106012000Y85046000D02*
X98712000Y85046000D01*
X98712000Y85046000D02*
X98712000Y83896000D01*
X106012000Y79546000D02*
X98712000Y79546000D01*
%TO.C,BT1*%
X15498314Y26925983D02*
X13048314Y26925983D01*
X13048314Y20825983D02*
X15498314Y20825983D01*
X12498314Y26375983D02*
X12498314Y21375983D01*
X16198314Y20355983D02*
G75*
G03*
X39811757Y24391974I11550000J3520000D01*
G01*
X16203083Y20332498D02*
G75*
G03*
X15498314Y20825983I-704769J-256515D01*
G01*
X13048314Y26925983D02*
G75*
G03*
X12498314Y26375983I-1J-549999D01*
G01*
X39811757Y23359992D02*
G75*
G03*
X16198314Y27395983I-12063443J515991D01*
G01*
X12498314Y21375983D02*
G75*
G03*
X13048314Y20825983I549999J-1D01*
G01*
X15498314Y26925983D02*
G75*
G03*
X16203083Y27419468I0J750000D01*
G01*
%TO.C,D2*%
X30132000Y8846000D02*
X37432000Y8846000D01*
X37432000Y3346000D02*
X37432000Y4496000D01*
X30132000Y3346000D02*
X37432000Y3346000D01*
%TO.C,SW5*%
X102382000Y67296000D02*
X102382000Y66296000D01*
X94182000Y68296000D02*
X94182000Y70896000D01*
X94382000Y66346000D02*
X100182000Y66346000D01*
X102382000Y66296000D02*
X101382000Y66296000D01*
X100382000Y68296000D02*
X100382000Y70896000D01*
X94282000Y72846000D02*
X100282000Y72846000D01*
%TO.C,D15*%
X130092000Y38006000D02*
X130092000Y45306000D01*
X135592000Y38006000D02*
X135592000Y45306000D01*
X135592000Y45306000D02*
X134442000Y45306000D01*
%TO.C,D36*%
X8592000Y47846000D02*
X8592000Y40546000D01*
X3092000Y40546000D02*
X4242000Y40546000D01*
X3092000Y47846000D02*
X3092000Y40546000D01*
%TO.C,D5*%
X52992000Y3346000D02*
X60292000Y3346000D01*
X60292000Y3346000D02*
X60292000Y4496000D01*
X52992000Y8846000D02*
X60292000Y8846000D01*
%TO.C,D3*%
X37752000Y3346000D02*
X45052000Y3346000D01*
X37752000Y8846000D02*
X45052000Y8846000D01*
X45052000Y3346000D02*
X45052000Y4496000D01*
%TO.C,D37*%
X3092000Y32926000D02*
X4242000Y32926000D01*
X8592000Y40226000D02*
X8592000Y32926000D01*
X3092000Y40226000D02*
X3092000Y32926000D01*
%TO.C,J2*%
X32572000Y69402000D02*
X29912000Y69402000D01*
X32572000Y55372000D02*
X32572000Y54042000D01*
X32572000Y56642000D02*
X29912000Y56642000D01*
X32572000Y56642000D02*
X32572000Y69402000D01*
X29912000Y56642000D02*
X29912000Y69402000D01*
X32572000Y54042000D02*
X31242000Y54042000D01*
%TO.C,D1*%
X22512000Y8846000D02*
X29812000Y8846000D01*
X29812000Y3346000D02*
X29812000Y4496000D01*
X22512000Y3346000D02*
X29812000Y3346000D01*
%TO.C,Y2*%
X15452000Y61026000D02*
X16552000Y61026000D01*
X14052000Y62876000D02*
X14052000Y61076000D01*
X15452000Y62926000D02*
X16552000Y62926000D01*
%TO.C,SW2*%
X66918000Y15046000D02*
X66918000Y17646000D01*
X60818000Y19596000D02*
X66818000Y19596000D01*
X68918000Y14046000D02*
X68918000Y13046000D01*
X60718000Y15046000D02*
X60718000Y17646000D01*
X60918000Y13096000D02*
X66718000Y13096000D01*
X68918000Y13046000D02*
X67918000Y13046000D01*
%TO.C,J3*%
X124012000Y70866000D02*
X121412000Y70866000D01*
X121412000Y70866000D02*
X121412000Y68266000D01*
X124012000Y70866000D02*
X124012000Y76006000D01*
X124012000Y69596000D02*
X124012000Y68266000D01*
X124012000Y76006000D02*
X118812000Y76006000D01*
X118812000Y68266000D02*
X118812000Y76006000D01*
X124012000Y68266000D02*
X122682000Y68266000D01*
X121412000Y68266000D02*
X118812000Y68266000D01*
%TO.C,D12*%
X106332000Y8846000D02*
X113632000Y8846000D01*
X113632000Y3346000D02*
X113632000Y4496000D01*
X106332000Y3346000D02*
X113632000Y3346000D01*
%TO.C,D29*%
X37752000Y85046000D02*
X37752000Y83896000D01*
X45052000Y79546000D02*
X37752000Y79546000D01*
X45052000Y85046000D02*
X37752000Y85046000D01*
%TO.C,D4*%
X45372000Y8846000D02*
X52672000Y8846000D01*
X52672000Y3346000D02*
X52672000Y4496000D01*
X45372000Y3346000D02*
X52672000Y3346000D01*
%TO.C,D39*%
X8592000Y24986000D02*
X8592000Y17686000D01*
X3092000Y17686000D02*
X4242000Y17686000D01*
X3092000Y24986000D02*
X3092000Y17686000D01*
%TO.C,D40*%
X3092000Y17366000D02*
X3092000Y10066000D01*
X8592000Y17366000D02*
X8592000Y10066000D01*
X3092000Y10066000D02*
X4242000Y10066000D01*
%TO.C,SW4*%
X83450000Y15046000D02*
X83450000Y17646000D01*
X83550000Y19596000D02*
X89550000Y19596000D01*
X89650000Y15046000D02*
X89650000Y17646000D01*
X91650000Y13046000D02*
X90650000Y13046000D01*
X83650000Y13096000D02*
X89450000Y13096000D01*
X91650000Y14046000D02*
X91650000Y13046000D01*
%TD*%
%LPC*%
D13*
%TO.C,C4*%
X107608000Y44958000D03*
X109308000Y44958000D03*
%TD*%
D14*
%TO.C,D18*%
X134442000Y66966000D03*
X131242000Y66966000D03*
X131242000Y62066000D03*
X134442000Y62066000D03*
%TD*%
D15*
%TO.C,D28*%
X46572000Y83896000D03*
X46572000Y80696000D03*
X51472000Y80696000D03*
X51472000Y83896000D03*
%TD*%
D16*
%TO.C,H2*%
X134386466Y84551534D03*
%TD*%
D17*
%TO.C,SW1*%
X56578000Y14096000D03*
X48578000Y14096000D03*
X56578000Y18596000D03*
X48578000Y18596000D03*
%TD*%
D15*
%TO.C,D7*%
X74332000Y4496000D03*
X74332000Y7696000D03*
X69432000Y7696000D03*
X69432000Y4496000D03*
%TD*%
D18*
%TO.C,C2*%
X115062000Y44616000D03*
X115062000Y46316000D03*
%TD*%
D13*
%TO.C,C5*%
X99226000Y44958000D03*
X100926000Y44958000D03*
%TD*%
D16*
%TO.C,H1*%
X4386466Y84551534D03*
%TD*%
D19*
%TO.C,U5*%
X62992000Y58706000D03*
D20*
X65532000Y58706000D03*
X68072000Y58706000D03*
X70612000Y58706000D03*
%TD*%
D14*
%TO.C,D16*%
X134442000Y51726000D03*
X131242000Y51726000D03*
X131242000Y46826000D03*
X134442000Y46826000D03*
%TD*%
D13*
%TO.C,R11*%
X76796000Y11684000D03*
X75096000Y11684000D03*
%TD*%
D14*
%TO.C,D38*%
X4242000Y26506000D03*
X7442000Y26506000D03*
X7442000Y31406000D03*
X4242000Y31406000D03*
%TD*%
D15*
%TO.C,D9*%
X89572000Y4496000D03*
X89572000Y7696000D03*
X84672000Y7696000D03*
X84672000Y4496000D03*
%TD*%
D21*
%TO.C,DS1*%
X61722000Y36576000D03*
D22*
X64262000Y36576000D03*
X66802000Y36576000D03*
X69342000Y36576000D03*
X71882000Y36576000D03*
X74422000Y36576000D03*
X76962000Y36576000D03*
X76962000Y51816000D03*
X74422000Y51816000D03*
X71882000Y51816000D03*
X69342000Y51816000D03*
X66802000Y51816000D03*
X64262000Y51816000D03*
X61722000Y51816000D03*
%TD*%
D15*
%TO.C,D27*%
X54192000Y83896000D03*
X54192000Y80696000D03*
X59092000Y80696000D03*
X59092000Y83896000D03*
%TD*%
D13*
%TO.C,R15*%
X109132000Y72136000D03*
X110832000Y72136000D03*
%TD*%
D14*
%TO.C,D13*%
X134442000Y28866000D03*
X131242000Y28866000D03*
X131242000Y23966000D03*
X134442000Y23966000D03*
%TD*%
D18*
%TO.C,C6*%
X97282000Y26006000D03*
X97282000Y27706000D03*
%TD*%
D13*
%TO.C,C10*%
X14312000Y6096000D03*
X12612000Y6096000D03*
%TD*%
%TO.C,R2*%
X110832000Y67056000D03*
X109132000Y67056000D03*
%TD*%
D18*
%TO.C,C1*%
X128524000Y43258000D03*
X128524000Y44958000D03*
%TD*%
D15*
%TO.C,D11*%
X104812000Y4496000D03*
X104812000Y7696000D03*
X99912000Y7696000D03*
X99912000Y4496000D03*
%TD*%
D13*
%TO.C,C3*%
X37504000Y69088000D03*
X39204000Y69088000D03*
%TD*%
D15*
%TO.C,D6*%
X66697920Y4496000D03*
X66697920Y7696000D03*
X61797920Y7696000D03*
X61797920Y4496000D03*
%TD*%
D14*
%TO.C,D35*%
X4242000Y49366000D03*
X7442000Y49366000D03*
X7442000Y54266000D03*
X4242000Y54266000D03*
%TD*%
D16*
%TO.C,H3*%
X4386466Y4551534D03*
%TD*%
D14*
%TO.C,D14*%
X134442000Y36486000D03*
X131242000Y36486000D03*
X131242000Y31586000D03*
X134442000Y31586000D03*
%TD*%
D13*
%TO.C,R4*%
X37562000Y61976000D03*
X39262000Y61976000D03*
%TD*%
%TO.C,C11*%
X121832000Y6096000D03*
X123532000Y6096000D03*
%TD*%
D14*
%TO.C,D33*%
X4242000Y64606000D03*
X7442000Y64606000D03*
X7442000Y69506000D03*
X4242000Y69506000D03*
%TD*%
D13*
%TO.C,R9*%
X53262000Y11176000D03*
X51562000Y11176000D03*
%TD*%
%TO.C,C12*%
X121832000Y82296000D03*
X123532000Y82296000D03*
%TD*%
D15*
%TO.C,D31*%
X23712000Y83896000D03*
X23712000Y80696000D03*
X28612000Y80696000D03*
X28612000Y83896000D03*
%TD*%
D14*
%TO.C,D34*%
X4242000Y56986000D03*
X7442000Y56986000D03*
X7442000Y61886000D03*
X4242000Y61886000D03*
%TD*%
D13*
%TO.C,C13*%
X12612000Y82296000D03*
X14312000Y82296000D03*
%TD*%
D23*
%TO.C,U2*%
X102622000Y22656000D03*
D24*
X104902000Y28956000D03*
D23*
X107182000Y22656000D03*
%TD*%
D14*
%TO.C,D32*%
X4242000Y72226000D03*
X7442000Y72226000D03*
X7442000Y77126000D03*
X4242000Y77126000D03*
%TD*%
D18*
%TO.C,C7*%
X112522000Y26006000D03*
X112522000Y27706000D03*
%TD*%
D25*
%TO.C,BZ1*%
X29464000Y46736000D03*
D26*
X24464000Y46736000D03*
%TD*%
D27*
%TO.C,D50*%
X126238000Y11938500D03*
X126238000Y13813500D03*
%TD*%
D15*
%TO.C,D30*%
X31332000Y83896000D03*
X31332000Y80696000D03*
X36232000Y80696000D03*
X36232000Y83896000D03*
%TD*%
D13*
%TO.C,C9*%
X49022000Y28956000D03*
X47322000Y28956000D03*
%TD*%
D17*
%TO.C,SW3*%
X79374000Y14096000D03*
X71374000Y14096000D03*
X79374000Y18596000D03*
X71374000Y18596000D03*
%TD*%
D15*
%TO.C,D20*%
X107532000Y83896000D03*
X107532000Y80696000D03*
X112432000Y80696000D03*
X112432000Y83896000D03*
%TD*%
D16*
%TO.C,H4*%
X134366000Y4572000D03*
%TD*%
D13*
%TO.C,R3*%
X37562000Y65532000D03*
X39262000Y65532000D03*
%TD*%
D28*
%TO.C,U3*%
X55367000Y22616000D03*
D29*
X57907000Y22616000D03*
X60447000Y22616000D03*
X62987000Y22616000D03*
X65527000Y22616000D03*
X68067000Y22616000D03*
X70607000Y22616000D03*
X73147000Y22616000D03*
X75687000Y22616000D03*
X78227000Y22616000D03*
X80767000Y22616000D03*
X83307000Y22616000D03*
X83307000Y30236000D03*
X80767000Y30236000D03*
X78227000Y30236000D03*
X75687000Y30236000D03*
X73147000Y30236000D03*
X70607000Y30236000D03*
X68067000Y30236000D03*
X65527000Y30236000D03*
X62987000Y30236000D03*
X60447000Y30236000D03*
X57907000Y30236000D03*
X55367000Y30236000D03*
%TD*%
D18*
%TO.C,R1*%
X126238000Y16256000D03*
X126238000Y17956000D03*
%TD*%
%TO.C,R13*%
X35472000Y47078000D03*
X35472000Y45378000D03*
%TD*%
D13*
%TO.C,R14*%
X109132000Y61976000D03*
X110832000Y61976000D03*
%TD*%
D28*
%TO.C,U4*%
X14742000Y65796000D03*
D29*
X17282000Y65796000D03*
X19822000Y65796000D03*
X22362000Y65796000D03*
X22362000Y73416000D03*
X19822000Y73416000D03*
X17282000Y73416000D03*
X14742000Y73416000D03*
%TD*%
D15*
%TO.C,D24*%
X77052000Y83896000D03*
X77052000Y80696000D03*
X81952000Y80696000D03*
X81952000Y83896000D03*
%TD*%
D30*
%TO.C,Y1*%
X100144000Y41148000D03*
X108644000Y41148000D03*
%TD*%
D15*
%TO.C,D25*%
X69432000Y83896000D03*
X69432000Y80696000D03*
X74332000Y80696000D03*
X74332000Y83896000D03*
%TD*%
%TO.C,D22*%
X92292000Y83896000D03*
X92292000Y80696000D03*
X97192000Y80696000D03*
X97192000Y83896000D03*
%TD*%
%TO.C,D10*%
X97192000Y4496000D03*
X97192000Y7696000D03*
X92292000Y7696000D03*
X92292000Y4496000D03*
%TD*%
D13*
%TO.C,C8*%
X49022000Y23876000D03*
X47322000Y23876000D03*
%TD*%
%TO.C,R12*%
X87630000Y11684000D03*
X85930000Y11684000D03*
%TD*%
D14*
%TO.C,D17*%
X134442000Y59346000D03*
X131242000Y59346000D03*
X131242000Y54446000D03*
X134442000Y54446000D03*
%TD*%
%TO.C,D19*%
X134442000Y74586000D03*
X131242000Y74586000D03*
X131242000Y69686000D03*
X134442000Y69686000D03*
%TD*%
D15*
%TO.C,D8*%
X81952000Y4496000D03*
X81952000Y7696000D03*
X77052000Y7696000D03*
X77052000Y4496000D03*
%TD*%
%TO.C,D26*%
X61812000Y83896000D03*
X61812000Y80696000D03*
X66712000Y80696000D03*
X66712000Y83896000D03*
%TD*%
%TO.C,D23*%
X84672000Y83896000D03*
X84672000Y80696000D03*
X89572000Y80696000D03*
X89572000Y83896000D03*
%TD*%
D28*
%TO.C,U1*%
X117602000Y60696000D03*
D29*
X117602000Y58156000D03*
X117602000Y55616000D03*
X117602000Y53076000D03*
X117602000Y50536000D03*
X117602000Y47996000D03*
X117602000Y45456000D03*
X117602000Y42916000D03*
X117602000Y40376000D03*
X117602000Y37836000D03*
X117602000Y35296000D03*
X117602000Y32756000D03*
X117602000Y30216000D03*
X117602000Y27676000D03*
X125222000Y27676000D03*
X125222000Y30216000D03*
X125222000Y32756000D03*
X125222000Y35296000D03*
X125222000Y37836000D03*
X125222000Y40376000D03*
X125222000Y42916000D03*
X125222000Y45456000D03*
X125222000Y47996000D03*
X125222000Y50536000D03*
X125222000Y53076000D03*
X125222000Y55616000D03*
X125222000Y58156000D03*
X125222000Y60696000D03*
%TD*%
D15*
%TO.C,D21*%
X99912000Y83896000D03*
X99912000Y80696000D03*
X104812000Y80696000D03*
X104812000Y83896000D03*
%TD*%
D31*
%TO.C,BT1*%
X14548314Y23875983D03*
D32*
X35038314Y23875983D03*
%TD*%
D15*
%TO.C,D2*%
X36232000Y4496000D03*
X36232000Y7696000D03*
X31332000Y7696000D03*
X31332000Y4496000D03*
%TD*%
D17*
%TO.C,SW5*%
X101282000Y67346000D03*
X93282000Y67346000D03*
X101282000Y71846000D03*
X93282000Y71846000D03*
%TD*%
D14*
%TO.C,D15*%
X134442000Y44106000D03*
X131242000Y44106000D03*
X131242000Y39206000D03*
X134442000Y39206000D03*
%TD*%
%TO.C,D36*%
X4242000Y41746000D03*
X7442000Y41746000D03*
X7442000Y46646000D03*
X4242000Y46646000D03*
%TD*%
D15*
%TO.C,D5*%
X59092000Y4496000D03*
X59092000Y7696000D03*
X54192000Y7696000D03*
X54192000Y4496000D03*
%TD*%
%TO.C,D3*%
X43852000Y4496000D03*
X43852000Y7696000D03*
X38952000Y7696000D03*
X38952000Y4496000D03*
%TD*%
D14*
%TO.C,D37*%
X4242000Y34126000D03*
X7442000Y34126000D03*
X7442000Y39026000D03*
X4242000Y39026000D03*
%TD*%
D19*
%TO.C,J2*%
X31242000Y55372000D03*
D20*
X31242000Y57912000D03*
X31242000Y60452000D03*
X31242000Y62992000D03*
X31242000Y65532000D03*
X31242000Y68072000D03*
%TD*%
D15*
%TO.C,D1*%
X28612000Y4496000D03*
X28612000Y7696000D03*
X23712000Y7696000D03*
X23712000Y4496000D03*
%TD*%
D33*
%TO.C,Y2*%
X14752000Y61976000D03*
X17252000Y61976000D03*
%TD*%
D13*
%TO.C,R5*%
X68658000Y33020000D03*
X70358000Y33020000D03*
%TD*%
D17*
%TO.C,SW2*%
X67818000Y14096000D03*
X59818000Y14096000D03*
X67818000Y18596000D03*
X59818000Y18596000D03*
%TD*%
D19*
%TO.C,J3*%
X122682000Y69596000D03*
D20*
X120142000Y69596000D03*
X122682000Y72136000D03*
X120142000Y72136000D03*
X122682000Y74676000D03*
X120142000Y74676000D03*
%TD*%
D15*
%TO.C,D12*%
X112432000Y4496000D03*
X112432000Y7696000D03*
X107532000Y7696000D03*
X107532000Y4496000D03*
%TD*%
%TO.C,D29*%
X38952000Y83896000D03*
X38952000Y80696000D03*
X43852000Y80696000D03*
X43852000Y83896000D03*
%TD*%
%TO.C,D4*%
X51472000Y4496000D03*
X51472000Y7696000D03*
X46572000Y7696000D03*
X46572000Y4496000D03*
%TD*%
D14*
%TO.C,D39*%
X4242000Y18886000D03*
X7442000Y18886000D03*
X7442000Y23786000D03*
X4242000Y23786000D03*
%TD*%
%TO.C,D40*%
X4242000Y11266000D03*
X7442000Y11266000D03*
X7442000Y16166000D03*
X4242000Y16166000D03*
%TD*%
D17*
%TO.C,SW4*%
X90550000Y14096000D03*
X82550000Y14096000D03*
X90550000Y18596000D03*
X82550000Y18596000D03*
%TD*%
D13*
%TO.C,R10*%
X65112000Y11684000D03*
X63412000Y11684000D03*
%TD*%
D34*
%TO.C,J1*%
X91982011Y24877998D03*
D35*
X86682011Y27177998D03*
X89182011Y30877998D03*
%TD*%
M02*
